<?xml version="1.0" encoding="utf-8" standalone="no"?>
<!DOCTYPE svg PUBLIC "-//W3C//DTD SVG 1.1//EN"
  "http://www.w3.org/Graphics/SVG/1.1/DTD/svg11.dtd">
<svg xmlns:xlink="http://www.w3.org/1999/xlink" width="432pt" height="288pt" viewBox="0 0 432 288" xmlns="http://www.w3.org/2000/svg" version="1.1">
 <metadata>
  <rdf:RDF xmlns:dc="http://purl.org/dc/elements/1.1/" xmlns:cc="http://creativecommons.org/ns#" xmlns:rdf="http://www.w3.org/1999/02/22-rdf-syntax-ns#">
   <cc:Work>
    <dc:type rdf:resource="http://purl.org/dc/dcmitype/StillImage"/>
    <dc:date>1980-01-01T00:00:00+00:00</dc:date>
    <dc:format>image/svg+xml</dc:format>
    <dc:creator>
     <cc:Agent>
      <dc:title>Matplotlib v3.10.5, https://matplotlib.org/</dc:title>
     </cc:Agent>
    </dc:creator>
   </cc:Work>
  </rdf:RDF>
 </metadata>
 <defs>
  <style type="text/css">*{stroke-linejoin: round; stroke-linecap: butt}</style>
 </defs>
 <g id="figure_1">
  <g id="patch_1">
   <path d="M 0 288 
L 432 288 
L 432 0 
L 0 0 
z
" style="fill: #ffffff"/>
  </g>
  <g id="axes_1">
   <g id="patch_2">
    <path d="M 54 256.32 
L 388.8 256.32 
L 388.8 34.56 
L 54 34.56 
z
" style="fill: #ffffff"/>
   </g>
   <g id="matplotlib.axis_1">
    <g id="xtick_1">
     <g id="line2d_1">
      <path d="M 69.218182 256.32 
L 69.218182 34.56 
" clip-path="url(#pe2d7f53679)" style="fill: none; stroke: #b0b0b0; stroke-width: 0.8; stroke-linecap: square"/>
     </g>
     <g id="line2d_2">
      <defs>
       <path id="m4d1e6cd532" d="M 0 0 
L 0 3.5 
" style="stroke: #000000; stroke-width: 0.8"/>
      </defs>
      <g>
       <use xlink:href="#m4d1e6cd532" x="69.218182" y="256.32" style="stroke: #000000; stroke-width: 0.8"/>
      </g>
     </g>
     <g id="text_1">
      <!-- 0 -->
      <g transform="translate(66.036932 270.918437) scale(0.1 -0.1)">
       <defs>
        <path id="DejaVuSans-30" d="M 2034 4250 
Q 1547 4250 1301 3770 
Q 1056 3291 1056 2328 
Q 1056 1369 1301 889 
Q 1547 409 2034 409 
Q 2525 409 2770 889 
Q 3016 1369 3016 2328 
Q 3016 3291 2770 3770 
Q 2525 4250 2034 4250 
z
M 2034 4750 
Q 2819 4750 3233 4129 
Q 3647 3509 3647 2328 
Q 3647 1150 3233 529 
Q 2819 -91 2034 -91 
Q 1250 -91 836 529 
Q 422 1150 422 2328 
Q 422 3509 836 4129 
Q 1250 4750 2034 4750 
z
" transform="scale(0.015625)"/>
       </defs>
       <use xlink:href="#DejaVuSans-30"/>
      </g>
     </g>
    </g>
    <g id="xtick_2">
     <g id="line2d_3">
      <path d="M 118.436105 256.32 
L 118.436105 34.56 
" clip-path="url(#pe2d7f53679)" style="fill: none; stroke: #b0b0b0; stroke-width: 0.8; stroke-linecap: square"/>
     </g>
     <g id="line2d_4">
      <g>
       <use xlink:href="#m4d1e6cd532" x="118.436105" y="256.32" style="stroke: #000000; stroke-width: 0.8"/>
      </g>
     </g>
     <g id="text_2">
      <!-- 1 -->
      <g transform="translate(115.254855 270.918437) scale(0.1 -0.1)">
       <defs>
        <path id="DejaVuSans-31" d="M 794 531 
L 1825 531 
L 1825 4091 
L 703 3866 
L 703 4441 
L 1819 4666 
L 2450 4666 
L 2450 531 
L 3481 531 
L 3481 0 
L 794 0 
L 794 531 
z
" transform="scale(0.015625)"/>
       </defs>
       <use xlink:href="#DejaVuSans-31"/>
      </g>
     </g>
    </g>
    <g id="xtick_3">
     <g id="line2d_5">
      <path d="M 167.654028 256.32 
L 167.654028 34.56 
" clip-path="url(#pe2d7f53679)" style="fill: none; stroke: #b0b0b0; stroke-width: 0.8; stroke-linecap: square"/>
     </g>
     <g id="line2d_6">
      <g>
       <use xlink:href="#m4d1e6cd532" x="167.654028" y="256.32" style="stroke: #000000; stroke-width: 0.8"/>
      </g>
     </g>
     <g id="text_3">
      <!-- 2 -->
      <g transform="translate(164.472778 270.918437) scale(0.1 -0.1)">
       <defs>
        <path id="DejaVuSans-32" d="M 1228 531 
L 3431 531 
L 3431 0 
L 469 0 
L 469 531 
Q 828 903 1448 1529 
Q 2069 2156 2228 2338 
Q 2531 2678 2651 2914 
Q 2772 3150 2772 3378 
Q 2772 3750 2511 3984 
Q 2250 4219 1831 4219 
Q 1534 4219 1204 4116 
Q 875 4013 500 3803 
L 500 4441 
Q 881 4594 1212 4672 
Q 1544 4750 1819 4750 
Q 2544 4750 2975 4387 
Q 3406 4025 3406 3419 
Q 3406 3131 3298 2873 
Q 3191 2616 2906 2266 
Q 2828 2175 2409 1742 
Q 1991 1309 1228 531 
z
" transform="scale(0.015625)"/>
       </defs>
       <use xlink:href="#DejaVuSans-32"/>
      </g>
     </g>
    </g>
    <g id="xtick_4">
     <g id="line2d_7">
      <path d="M 216.871951 256.32 
L 216.871951 34.56 
" clip-path="url(#pe2d7f53679)" style="fill: none; stroke: #b0b0b0; stroke-width: 0.8; stroke-linecap: square"/>
     </g>
     <g id="line2d_8">
      <g>
       <use xlink:href="#m4d1e6cd532" x="216.871951" y="256.32" style="stroke: #000000; stroke-width: 0.8"/>
      </g>
     </g>
     <g id="text_4">
      <!-- 3 -->
      <g transform="translate(213.690701 270.918437) scale(0.1 -0.1)">
       <defs>
        <path id="DejaVuSans-33" d="M 2597 2516 
Q 3050 2419 3304 2112 
Q 3559 1806 3559 1356 
Q 3559 666 3084 287 
Q 2609 -91 1734 -91 
Q 1441 -91 1130 -33 
Q 819 25 488 141 
L 488 750 
Q 750 597 1062 519 
Q 1375 441 1716 441 
Q 2309 441 2620 675 
Q 2931 909 2931 1356 
Q 2931 1769 2642 2001 
Q 2353 2234 1838 2234 
L 1294 2234 
L 1294 2753 
L 1863 2753 
Q 2328 2753 2575 2939 
Q 2822 3125 2822 3475 
Q 2822 3834 2567 4026 
Q 2313 4219 1838 4219 
Q 1578 4219 1281 4162 
Q 984 4106 628 3988 
L 628 4550 
Q 988 4650 1302 4700 
Q 1616 4750 1894 4750 
Q 2613 4750 3031 4423 
Q 3450 4097 3450 3541 
Q 3450 3153 3228 2886 
Q 3006 2619 2597 2516 
z
" transform="scale(0.015625)"/>
       </defs>
       <use xlink:href="#DejaVuSans-33"/>
      </g>
     </g>
    </g>
    <g id="xtick_5">
     <g id="line2d_9">
      <path d="M 266.089874 256.32 
L 266.089874 34.56 
" clip-path="url(#pe2d7f53679)" style="fill: none; stroke: #b0b0b0; stroke-width: 0.8; stroke-linecap: square"/>
     </g>
     <g id="line2d_10">
      <g>
       <use xlink:href="#m4d1e6cd532" x="266.089874" y="256.32" style="stroke: #000000; stroke-width: 0.8"/>
      </g>
     </g>
     <g id="text_5">
      <!-- 4 -->
      <g transform="translate(262.908624 270.918437) scale(0.1 -0.1)">
       <defs>
        <path id="DejaVuSans-34" d="M 2419 4116 
L 825 1625 
L 2419 1625 
L 2419 4116 
z
M 2253 4666 
L 3047 4666 
L 3047 1625 
L 3713 1625 
L 3713 1100 
L 3047 1100 
L 3047 0 
L 2419 0 
L 2419 1100 
L 313 1100 
L 313 1709 
L 2253 4666 
z
" transform="scale(0.015625)"/>
       </defs>
       <use xlink:href="#DejaVuSans-34"/>
      </g>
     </g>
    </g>
    <g id="xtick_6">
     <g id="line2d_11">
      <path d="M 315.307797 256.32 
L 315.307797 34.56 
" clip-path="url(#pe2d7f53679)" style="fill: none; stroke: #b0b0b0; stroke-width: 0.8; stroke-linecap: square"/>
     </g>
     <g id="line2d_12">
      <g>
       <use xlink:href="#m4d1e6cd532" x="315.307797" y="256.32" style="stroke: #000000; stroke-width: 0.8"/>
      </g>
     </g>
     <g id="text_6">
      <!-- 5 -->
      <g transform="translate(312.126547 270.918437) scale(0.1 -0.1)">
       <defs>
        <path id="DejaVuSans-35" d="M 691 4666 
L 3169 4666 
L 3169 4134 
L 1269 4134 
L 1269 2991 
Q 1406 3038 1543 3061 
Q 1681 3084 1819 3084 
Q 2600 3084 3056 2656 
Q 3513 2228 3513 1497 
Q 3513 744 3044 326 
Q 2575 -91 1722 -91 
Q 1428 -91 1123 -41 
Q 819 9 494 109 
L 494 744 
Q 775 591 1075 516 
Q 1375 441 1709 441 
Q 2250 441 2565 725 
Q 2881 1009 2881 1497 
Q 2881 1984 2565 2268 
Q 2250 2553 1709 2553 
Q 1456 2553 1204 2497 
Q 953 2441 691 2322 
L 691 4666 
z
" transform="scale(0.015625)"/>
       </defs>
       <use xlink:href="#DejaVuSans-35"/>
      </g>
     </g>
    </g>
    <g id="xtick_7">
     <g id="line2d_13">
      <path d="M 364.52572 256.32 
L 364.52572 34.56 
" clip-path="url(#pe2d7f53679)" style="fill: none; stroke: #b0b0b0; stroke-width: 0.8; stroke-linecap: square"/>
     </g>
     <g id="line2d_14">
      <g>
       <use xlink:href="#m4d1e6cd532" x="364.52572" y="256.32" style="stroke: #000000; stroke-width: 0.8"/>
      </g>
     </g>
     <g id="text_7">
      <!-- 6 -->
      <g transform="translate(361.34447 270.918437) scale(0.1 -0.1)">
       <defs>
        <path id="DejaVuSans-36" d="M 2113 2584 
Q 1688 2584 1439 2293 
Q 1191 2003 1191 1497 
Q 1191 994 1439 701 
Q 1688 409 2113 409 
Q 2538 409 2786 701 
Q 3034 994 3034 1497 
Q 3034 2003 2786 2293 
Q 2538 2584 2113 2584 
z
M 3366 4563 
L 3366 3988 
Q 3128 4100 2886 4159 
Q 2644 4219 2406 4219 
Q 1781 4219 1451 3797 
Q 1122 3375 1075 2522 
Q 1259 2794 1537 2939 
Q 1816 3084 2150 3084 
Q 2853 3084 3261 2657 
Q 3669 2231 3669 1497 
Q 3669 778 3244 343 
Q 2819 -91 2113 -91 
Q 1303 -91 875 529 
Q 447 1150 447 2328 
Q 447 3434 972 4092 
Q 1497 4750 2381 4750 
Q 2619 4750 2861 4703 
Q 3103 4656 3366 4563 
z
" transform="scale(0.015625)"/>
       </defs>
       <use xlink:href="#DejaVuSans-36"/>
      </g>
     </g>
    </g>
    <g id="text_8">
     <!-- Time (seconds) -->
     <g transform="translate(183.238281 284.596563) scale(0.1 -0.1)">
      <defs>
       <path id="DejaVuSans-54" d="M -19 4666 
L 3928 4666 
L 3928 4134 
L 2272 4134 
L 2272 0 
L 1638 0 
L 1638 4134 
L -19 4134 
L -19 4666 
z
" transform="scale(0.015625)"/>
       <path id="DejaVuSans-69" d="M 603 3500 
L 1178 3500 
L 1178 0 
L 603 0 
L 603 3500 
z
M 603 4863 
L 1178 4863 
L 1178 4134 
L 603 4134 
L 603 4863 
z
" transform="scale(0.015625)"/>
       <path id="DejaVuSans-6d" d="M 3328 2828 
Q 3544 3216 3844 3400 
Q 4144 3584 4550 3584 
Q 5097 3584 5394 3201 
Q 5691 2819 5691 2113 
L 5691 0 
L 5113 0 
L 5113 2094 
Q 5113 2597 4934 2840 
Q 4756 3084 4391 3084 
Q 3944 3084 3684 2787 
Q 3425 2491 3425 1978 
L 3425 0 
L 2847 0 
L 2847 2094 
Q 2847 2600 2669 2842 
Q 2491 3084 2119 3084 
Q 1678 3084 1418 2786 
Q 1159 2488 1159 1978 
L 1159 0 
L 581 0 
L 581 3500 
L 1159 3500 
L 1159 2956 
Q 1356 3278 1631 3431 
Q 1906 3584 2284 3584 
Q 2666 3584 2933 3390 
Q 3200 3197 3328 2828 
z
" transform="scale(0.015625)"/>
       <path id="DejaVuSans-65" d="M 3597 1894 
L 3597 1613 
L 953 1613 
Q 991 1019 1311 708 
Q 1631 397 2203 397 
Q 2534 397 2845 478 
Q 3156 559 3463 722 
L 3463 178 
Q 3153 47 2828 -22 
Q 2503 -91 2169 -91 
Q 1331 -91 842 396 
Q 353 884 353 1716 
Q 353 2575 817 3079 
Q 1281 3584 2069 3584 
Q 2775 3584 3186 3129 
Q 3597 2675 3597 1894 
z
M 3022 2063 
Q 3016 2534 2758 2815 
Q 2500 3097 2075 3097 
Q 1594 3097 1305 2825 
Q 1016 2553 972 2059 
L 3022 2063 
z
" transform="scale(0.015625)"/>
       <path id="DejaVuSans-20" transform="scale(0.015625)"/>
       <path id="DejaVuSans-28" d="M 1984 4856 
Q 1566 4138 1362 3434 
Q 1159 2731 1159 2009 
Q 1159 1288 1364 580 
Q 1569 -128 1984 -844 
L 1484 -844 
Q 1016 -109 783 600 
Q 550 1309 550 2009 
Q 550 2706 781 3412 
Q 1013 4119 1484 4856 
L 1984 4856 
z
" transform="scale(0.015625)"/>
       <path id="DejaVuSans-73" d="M 2834 3397 
L 2834 2853 
Q 2591 2978 2328 3040 
Q 2066 3103 1784 3103 
Q 1356 3103 1142 2972 
Q 928 2841 928 2578 
Q 928 2378 1081 2264 
Q 1234 2150 1697 2047 
L 1894 2003 
Q 2506 1872 2764 1633 
Q 3022 1394 3022 966 
Q 3022 478 2636 193 
Q 2250 -91 1575 -91 
Q 1294 -91 989 -36 
Q 684 19 347 128 
L 347 722 
Q 666 556 975 473 
Q 1284 391 1588 391 
Q 1994 391 2212 530 
Q 2431 669 2431 922 
Q 2431 1156 2273 1281 
Q 2116 1406 1581 1522 
L 1381 1569 
Q 847 1681 609 1914 
Q 372 2147 372 2553 
Q 372 3047 722 3315 
Q 1072 3584 1716 3584 
Q 2034 3584 2315 3537 
Q 2597 3491 2834 3397 
z
" transform="scale(0.015625)"/>
       <path id="DejaVuSans-63" d="M 3122 3366 
L 3122 2828 
Q 2878 2963 2633 3030 
Q 2388 3097 2138 3097 
Q 1578 3097 1268 2742 
Q 959 2388 959 1747 
Q 959 1106 1268 751 
Q 1578 397 2138 397 
Q 2388 397 2633 464 
Q 2878 531 3122 666 
L 3122 134 
Q 2881 22 2623 -34 
Q 2366 -91 2075 -91 
Q 1284 -91 818 406 
Q 353 903 353 1747 
Q 353 2603 823 3093 
Q 1294 3584 2113 3584 
Q 2378 3584 2631 3529 
Q 2884 3475 3122 3366 
z
" transform="scale(0.015625)"/>
       <path id="DejaVuSans-6f" d="M 1959 3097 
Q 1497 3097 1228 2736 
Q 959 2375 959 1747 
Q 959 1119 1226 758 
Q 1494 397 1959 397 
Q 2419 397 2687 759 
Q 2956 1122 2956 1747 
Q 2956 2369 2687 2733 
Q 2419 3097 1959 3097 
z
M 1959 3584 
Q 2709 3584 3137 3096 
Q 3566 2609 3566 1747 
Q 3566 888 3137 398 
Q 2709 -91 1959 -91 
Q 1206 -91 779 398 
Q 353 888 353 1747 
Q 353 2609 779 3096 
Q 1206 3584 1959 3584 
z
" transform="scale(0.015625)"/>
       <path id="DejaVuSans-6e" d="M 3513 2113 
L 3513 0 
L 2938 0 
L 2938 2094 
Q 2938 2591 2744 2837 
Q 2550 3084 2163 3084 
Q 1697 3084 1428 2787 
Q 1159 2491 1159 1978 
L 1159 0 
L 581 0 
L 581 3500 
L 1159 3500 
L 1159 2956 
Q 1366 3272 1645 3428 
Q 1925 3584 2291 3584 
Q 2894 3584 3203 3211 
Q 3513 2838 3513 2113 
z
" transform="scale(0.015625)"/>
       <path id="DejaVuSans-64" d="M 2906 2969 
L 2906 4863 
L 3481 4863 
L 3481 0 
L 2906 0 
L 2906 525 
Q 2725 213 2448 61 
Q 2172 -91 1784 -91 
Q 1150 -91 751 415 
Q 353 922 353 1747 
Q 353 2572 751 3078 
Q 1150 3584 1784 3584 
Q 2172 3584 2448 3432 
Q 2725 3281 2906 2969 
z
M 947 1747 
Q 947 1113 1208 752 
Q 1469 391 1925 391 
Q 2381 391 2643 752 
Q 2906 1113 2906 1747 
Q 2906 2381 2643 2742 
Q 2381 3103 1925 3103 
Q 1469 3103 1208 2742 
Q 947 2381 947 1747 
z
" transform="scale(0.015625)"/>
       <path id="DejaVuSans-29" d="M 513 4856 
L 1013 4856 
Q 1481 4119 1714 3412 
Q 1947 2706 1947 2009 
Q 1947 1309 1714 600 
Q 1481 -109 1013 -844 
L 513 -844 
Q 928 -128 1133 580 
Q 1338 1288 1338 2009 
Q 1338 2731 1133 3434 
Q 928 4138 513 4856 
z
" transform="scale(0.015625)"/>
      </defs>
      <use xlink:href="#DejaVuSans-54"/>
      <use xlink:href="#DejaVuSans-69" transform="translate(57.958984 0)"/>
      <use xlink:href="#DejaVuSans-6d" transform="translate(85.742188 0)"/>
      <use xlink:href="#DejaVuSans-65" transform="translate(183.154297 0)"/>
      <use xlink:href="#DejaVuSans-20" transform="translate(244.677734 0)"/>
      <use xlink:href="#DejaVuSans-28" transform="translate(276.464844 0)"/>
      <use xlink:href="#DejaVuSans-73" transform="translate(315.478516 0)"/>
      <use xlink:href="#DejaVuSans-65" transform="translate(367.578125 0)"/>
      <use xlink:href="#DejaVuSans-63" transform="translate(429.101562 0)"/>
      <use xlink:href="#DejaVuSans-6f" transform="translate(484.082031 0)"/>
      <use xlink:href="#DejaVuSans-6e" transform="translate(545.263672 0)"/>
      <use xlink:href="#DejaVuSans-64" transform="translate(608.642578 0)"/>
      <use xlink:href="#DejaVuSans-73" transform="translate(672.119141 0)"/>
      <use xlink:href="#DejaVuSans-29" transform="translate(724.21875 0)"/>
     </g>
    </g>
   </g>
   <g id="matplotlib.axis_2">
    <g id="ytick_1">
     <g id="line2d_15">
      <path d="M 54 244.922727 
L 388.8 244.922727 
" clip-path="url(#pe2d7f53679)" style="fill: none; stroke: #b0b0b0; stroke-width: 0.8; stroke-linecap: square"/>
     </g>
     <g id="line2d_16">
      <defs>
       <path id="mcc783a79d7" d="M 0 0 
L -3.5 0 
" style="stroke: #000000; stroke-width: 0.8"/>
      </defs>
      <g>
       <use xlink:href="#mcc783a79d7" x="54" y="244.922727" style="stroke: #000000; stroke-width: 0.8"/>
      </g>
     </g>
     <g id="text_9">
      <!-- 0 -->
      <g transform="translate(40.6375 248.721946) scale(0.1 -0.1)">
       <use xlink:href="#DejaVuSans-30"/>
      </g>
     </g>
    </g>
    <g id="ytick_2">
     <g id="line2d_17">
      <path d="M 54 216.286364 
L 388.8 216.286364 
" clip-path="url(#pe2d7f53679)" style="fill: none; stroke: #b0b0b0; stroke-width: 0.8; stroke-linecap: square"/>
     </g>
     <g id="line2d_18">
      <g>
       <use xlink:href="#mcc783a79d7" x="54" y="216.286364" style="stroke: #000000; stroke-width: 0.8"/>
      </g>
     </g>
     <g id="text_10">
      <!-- 50 -->
      <g transform="translate(34.275 220.085582) scale(0.1 -0.1)">
       <use xlink:href="#DejaVuSans-35"/>
       <use xlink:href="#DejaVuSans-30" transform="translate(63.623047 0)"/>
      </g>
     </g>
    </g>
    <g id="ytick_3">
     <g id="line2d_19">
      <path d="M 54 187.65 
L 388.8 187.65 
" clip-path="url(#pe2d7f53679)" style="fill: none; stroke: #b0b0b0; stroke-width: 0.8; stroke-linecap: square"/>
     </g>
     <g id="line2d_20">
      <g>
       <use xlink:href="#mcc783a79d7" x="54" y="187.65" style="stroke: #000000; stroke-width: 0.8"/>
      </g>
     </g>
     <g id="text_11">
      <!-- 100 -->
      <g transform="translate(27.9125 191.449219) scale(0.1 -0.1)">
       <use xlink:href="#DejaVuSans-31"/>
       <use xlink:href="#DejaVuSans-30" transform="translate(63.623047 0)"/>
       <use xlink:href="#DejaVuSans-30" transform="translate(127.246094 0)"/>
      </g>
     </g>
    </g>
    <g id="ytick_4">
     <g id="line2d_21">
      <path d="M 54 159.013636 
L 388.8 159.013636 
" clip-path="url(#pe2d7f53679)" style="fill: none; stroke: #b0b0b0; stroke-width: 0.8; stroke-linecap: square"/>
     </g>
     <g id="line2d_22">
      <g>
       <use xlink:href="#mcc783a79d7" x="54" y="159.013636" style="stroke: #000000; stroke-width: 0.8"/>
      </g>
     </g>
     <g id="text_12">
      <!-- 150 -->
      <g transform="translate(27.9125 162.812855) scale(0.1 -0.1)">
       <use xlink:href="#DejaVuSans-31"/>
       <use xlink:href="#DejaVuSans-35" transform="translate(63.623047 0)"/>
       <use xlink:href="#DejaVuSans-30" transform="translate(127.246094 0)"/>
      </g>
     </g>
    </g>
    <g id="ytick_5">
     <g id="line2d_23">
      <path d="M 54 130.377273 
L 388.8 130.377273 
" clip-path="url(#pe2d7f53679)" style="fill: none; stroke: #b0b0b0; stroke-width: 0.8; stroke-linecap: square"/>
     </g>
     <g id="line2d_24">
      <g>
       <use xlink:href="#mcc783a79d7" x="54" y="130.377273" style="stroke: #000000; stroke-width: 0.8"/>
      </g>
     </g>
     <g id="text_13">
      <!-- 200 -->
      <g transform="translate(27.9125 134.176491) scale(0.1 -0.1)">
       <use xlink:href="#DejaVuSans-32"/>
       <use xlink:href="#DejaVuSans-30" transform="translate(63.623047 0)"/>
       <use xlink:href="#DejaVuSans-30" transform="translate(127.246094 0)"/>
      </g>
     </g>
    </g>
    <g id="ytick_6">
     <g id="line2d_25">
      <path d="M 54 101.740909 
L 388.8 101.740909 
" clip-path="url(#pe2d7f53679)" style="fill: none; stroke: #b0b0b0; stroke-width: 0.8; stroke-linecap: square"/>
     </g>
     <g id="line2d_26">
      <g>
       <use xlink:href="#mcc783a79d7" x="54" y="101.740909" style="stroke: #000000; stroke-width: 0.8"/>
      </g>
     </g>
     <g id="text_14">
      <!-- 250 -->
      <g transform="translate(27.9125 105.540128) scale(0.1 -0.1)">
       <use xlink:href="#DejaVuSans-32"/>
       <use xlink:href="#DejaVuSans-35" transform="translate(63.623047 0)"/>
       <use xlink:href="#DejaVuSans-30" transform="translate(127.246094 0)"/>
      </g>
     </g>
    </g>
    <g id="ytick_7">
     <g id="line2d_27">
      <path d="M 54 73.104545 
L 388.8 73.104545 
" clip-path="url(#pe2d7f53679)" style="fill: none; stroke: #b0b0b0; stroke-width: 0.8; stroke-linecap: square"/>
     </g>
     <g id="line2d_28">
      <g>
       <use xlink:href="#mcc783a79d7" x="54" y="73.104545" style="stroke: #000000; stroke-width: 0.8"/>
      </g>
     </g>
     <g id="text_15">
      <!-- 300 -->
      <g transform="translate(27.9125 76.903764) scale(0.1 -0.1)">
       <use xlink:href="#DejaVuSans-33"/>
       <use xlink:href="#DejaVuSans-30" transform="translate(63.623047 0)"/>
       <use xlink:href="#DejaVuSans-30" transform="translate(127.246094 0)"/>
      </g>
     </g>
    </g>
    <g id="ytick_8">
     <g id="line2d_29">
      <path d="M 54 44.468182 
L 388.8 44.468182 
" clip-path="url(#pe2d7f53679)" style="fill: none; stroke: #b0b0b0; stroke-width: 0.8; stroke-linecap: square"/>
     </g>
     <g id="line2d_30">
      <g>
       <use xlink:href="#mcc783a79d7" x="54" y="44.468182" style="stroke: #000000; stroke-width: 0.8"/>
      </g>
     </g>
     <g id="text_16">
      <!-- 350 -->
      <g transform="translate(27.9125 48.267401) scale(0.1 -0.1)">
       <use xlink:href="#DejaVuSans-33"/>
       <use xlink:href="#DejaVuSans-35" transform="translate(63.623047 0)"/>
       <use xlink:href="#DejaVuSans-30" transform="translate(127.246094 0)"/>
      </g>
     </g>
    </g>
    <g id="text_17">
     <!-- Angle (degrees) -->
     <g transform="translate(21.832812 185.285313) rotate(-90) scale(0.1 -0.1)">
      <defs>
       <path id="DejaVuSans-41" d="M 2188 4044 
L 1331 1722 
L 3047 1722 
L 2188 4044 
z
M 1831 4666 
L 2547 4666 
L 4325 0 
L 3669 0 
L 3244 1197 
L 1141 1197 
L 716 0 
L 50 0 
L 1831 4666 
z
" transform="scale(0.015625)"/>
       <path id="DejaVuSans-67" d="M 2906 1791 
Q 2906 2416 2648 2759 
Q 2391 3103 1925 3103 
Q 1463 3103 1205 2759 
Q 947 2416 947 1791 
Q 947 1169 1205 825 
Q 1463 481 1925 481 
Q 2391 481 2648 825 
Q 2906 1169 2906 1791 
z
M 3481 434 
Q 3481 -459 3084 -895 
Q 2688 -1331 1869 -1331 
Q 1566 -1331 1297 -1286 
Q 1028 -1241 775 -1147 
L 775 -588 
Q 1028 -725 1275 -790 
Q 1522 -856 1778 -856 
Q 2344 -856 2625 -561 
Q 2906 -266 2906 331 
L 2906 616 
Q 2728 306 2450 153 
Q 2172 0 1784 0 
Q 1141 0 747 490 
Q 353 981 353 1791 
Q 353 2603 747 3093 
Q 1141 3584 1784 3584 
Q 2172 3584 2450 3431 
Q 2728 3278 2906 2969 
L 2906 3500 
L 3481 3500 
L 3481 434 
z
" transform="scale(0.015625)"/>
       <path id="DejaVuSans-6c" d="M 603 4863 
L 1178 4863 
L 1178 0 
L 603 0 
L 603 4863 
z
" transform="scale(0.015625)"/>
       <path id="DejaVuSans-72" d="M 2631 2963 
Q 2534 3019 2420 3045 
Q 2306 3072 2169 3072 
Q 1681 3072 1420 2755 
Q 1159 2438 1159 1844 
L 1159 0 
L 581 0 
L 581 3500 
L 1159 3500 
L 1159 2956 
Q 1341 3275 1631 3429 
Q 1922 3584 2338 3584 
Q 2397 3584 2469 3576 
Q 2541 3569 2628 3553 
L 2631 2963 
z
" transform="scale(0.015625)"/>
      </defs>
      <use xlink:href="#DejaVuSans-41"/>
      <use xlink:href="#DejaVuSans-6e" transform="translate(68.408203 0)"/>
      <use xlink:href="#DejaVuSans-67" transform="translate(131.787109 0)"/>
      <use xlink:href="#DejaVuSans-6c" transform="translate(195.263672 0)"/>
      <use xlink:href="#DejaVuSans-65" transform="translate(223.046875 0)"/>
      <use xlink:href="#DejaVuSans-20" transform="translate(284.570312 0)"/>
      <use xlink:href="#DejaVuSans-28" transform="translate(316.357422 0)"/>
      <use xlink:href="#DejaVuSans-64" transform="translate(355.371094 0)"/>
      <use xlink:href="#DejaVuSans-65" transform="translate(418.847656 0)"/>
      <use xlink:href="#DejaVuSans-67" transform="translate(480.371094 0)"/>
      <use xlink:href="#DejaVuSans-72" transform="translate(543.847656 0)"/>
      <use xlink:href="#DejaVuSans-65" transform="translate(582.710938 0)"/>
      <use xlink:href="#DejaVuSans-65" transform="translate(644.234375 0)"/>
      <use xlink:href="#DejaVuSans-73" transform="translate(705.757812 0)"/>
      <use xlink:href="#DejaVuSans-29" transform="translate(757.857422 0)"/>
     </g>
    </g>
   </g>
   <g id="line2d_31">
    <path d="M 69.218182 244.922727 
L 70.005669 244.521818 
L 71.679078 243.949091 
L 72.466565 243.490909 
L 73.303269 243.319091 
L 78.225062 240.970909 
L 79.849253 239.768182 
L 80.685958 239.424545 
L 81.522663 238.68 
L 82.310149 237.820909 
L 83.146854 237.42 
L 84.771046 235.644545 
L 85.60775 235.186364 
L 86.444455 234.27 
L 87.231942 233.811818 
L 88.905351 232.036364 
L 89.692838 231.635455 
L 91.366247 229.86 
L 92.153734 229.459091 
L 93.827143 227.740909 
L 94.61463 227.34 
L 96.28804 225.793636 
L 97.075526 225.45 
L 98.748936 223.903636 
L 99.536422 223.502727 
L 101.160614 222.013636 
L 101.997319 221.67 
L 103.670728 220.123636 
L 104.458215 219.722727 
L 106.082406 218.176364 
L 106.919111 217.832727 
L 108.59252 216.515455 
L 110.216712 215.828182 
L 111.053416 215.312727 
L 111.840903 214.396364 
L 112.677608 213.651818 
L 113.514313 213.250909 
L 115.138504 211.647273 
L 115.975209 211.246364 
L 117.5994 209.929091 
L 118.436105 209.585455 
L 120.060296 208.268182 
L 120.897001 207.981818 
L 122.521193 206.664545 
L 123.357897 206.378182 
L 124.982089 205.118182 
L 125.818793 204.831818 
L 127.442985 203.571818 
L 128.27969 203.228182 
L 129.903881 201.624545 
L 130.740586 201.223636 
L 131.528072 200.479091 
L 132.364777 200.078182 
L 133.988969 198.589091 
L 134.825673 198.245455 
L 136.449865 196.985455 
L 137.286569 196.641818 
L 138.910761 195.267273 
L 139.747466 194.980909 
L 140.58417 194.293636 
L 141.371657 194.007273 
L 143.832553 192.117273 
L 144.669258 191.773636 
L 146.293449 190.570909 
L 147.130154 190.227273 
L 148.754346 188.795455 
L 149.59105 188.451818 
L 151.215242 187.077273 
L 152.051946 186.733636 
L 152.888651 186.046364 
L 153.676138 185.645455 
L 155.349547 184.213636 
L 156.137034 183.87 
L 157.810443 182.724545 
L 158.59793 182.438182 
L 160.27134 181.120909 
L 161.058826 180.777273 
L 162.732236 179.059091 
L 163.519722 178.600909 
L 165.193132 176.768182 
L 165.980619 176.31 
L 167.654028 174.649091 
L 168.441515 174.190909 
L 170.114924 172.53 
L 170.902411 172.129091 
L 171.739116 171.212727 
L 172.57582 170.754545 
L 174.200012 168.921818 
L 174.987499 168.463636 
L 176.660908 166.802727 
L 177.497613 166.401818 
L 178.285099 165.657273 
L 179.121804 165.027273 
L 179.958509 164.740909 
L 181.5827 163.595455 
L 182.419405 163.251818 
L 184.043596 161.991818 
L 184.880301 161.648182 
L 186.504493 160.101818 
L 187.341197 159.700909 
L 188.965389 158.211818 
L 189.802093 157.868182 
L 191.426285 156.379091 
L 192.26299 156.035455 
L 193.050476 155.290909 
L 193.887181 154.947273 
L 194.723886 154.26 
L 195.511372 153.458182 
L 196.348077 153.057273 
L 197.972269 151.453636 
L 198.808973 151.052727 
L 200.433165 149.506364 
L 201.269869 149.048182 
L 202.894061 147.501818 
L 203.730766 147.158182 
L 205.354957 145.840909 
L 206.191662 145.497273 
L 207.815853 144.351818 
L 208.652558 144.065455 
L 210.325967 142.805455 
L 211.113454 142.519091 
L 212.786863 141.201818 
L 213.57435 140.858182 
L 214.411055 140.170909 
L 215.198542 139.827273 
L 216.871951 138.395455 
L 217.659438 138.051818 
L 219.332847 136.562727 
L 220.120334 136.161818 
L 221.793743 134.615455 
L 222.58123 134.214545 
L 224.25464 132.610909 
L 225.042126 132.21 
L 226.715536 130.549091 
L 227.503022 130.090909 
L 229.176432 128.544545 
L 229.963919 128.200909 
L 230.997495 127.570909 
L 231.637328 126.883636 
L 232.424815 126.482727 
L 234.098224 125.165455 
L 234.885711 124.821818 
L 235.722416 124.191818 
L 236.55912 123.848182 
L 238.183312 122.702727 
L 239.020016 122.416364 
L 242.268399 119.839091 
L 243.105104 118.98 
L 243.941809 118.521818 
L 245.566 116.803636 
L 246.402705 116.345455 
L 248.026896 114.512727 
L 248.863601 114.054545 
L 250.487793 112.336364 
L 251.324497 111.878182 
L 252.111984 111.076364 
L 252.948689 110.389091 
L 253.785393 110.045455 
L 254.57288 109.358182 
L 255.409585 109.014545 
L 257.033776 107.811818 
L 257.870481 107.525455 
L 259.494672 106.551818 
L 260.331377 106.265455 
L 261.168082 105.807273 
L 261.955569 105.234545 
L 262.792273 105.005455 
L 264.416465 103.86 
L 265.253169 103.573636 
L 266.877361 102.313636 
L 267.763284 101.97 
L 269.338257 100.71 
L 270.174962 100.309091 
L 271.011666 99.564545 
L 271.848371 99.163636 
L 273.472563 97.731818 
L 274.260049 97.044545 
L 275.096754 96.758182 
L 275.933459 96.242727 
L 276.720946 95.956364 
L 280.855251 93.665455 
L 281.691956 93.436364 
L 283.316147 92.691818 
L 284.103634 92.577273 
L 284.940339 92.233636 
L 285.777043 92.061818 
L 288.23794 91.088182 
L 290.698836 90.286364 
L 292.323027 89.140909 
L 293.159732 88.510909 
L 293.947219 88.224545 
L 294.783923 87.537273 
L 295.620628 87.193636 
L 297.244819 85.819091 
L 298.081524 85.418182 
L 299.705716 83.929091 
L 300.54242 83.528182 
L 302.166612 82.039091 
L 302.954099 81.695455 
L 304.627508 80.378182 
L 305.414995 80.034545 
L 307.088404 78.774545 
L 307.925109 78.430909 
L 309.5493 77.113636 
L 310.386005 76.827273 
L 312.010196 75.567273 
L 312.846901 75.280909 
L 313.634388 74.650909 
L 314.471093 74.25 
L 315.307797 73.333636 
L 316.095284 72.302727 
L 316.981207 71.787273 
L 319.392885 68.58 
L 320.180372 68.064545 
L 321.017076 67.090909 
L 321.853781 66.69 
L 323.477972 65.143636 
L 324.314677 64.8 
L 325.938869 63.769091 
L 326.775573 63.597273 
L 328.399765 63.139091 
L 330.122392 63.081818 
L 330.860661 62.967273 
L 331.746584 62.967273 
L 332.53407 63.54 
L 333.321557 63.425455 
L 334.158262 62.795455 
L 335.782453 60.962727 
L 336.619158 60.561818 
L 337.455863 59.76 
L 338.292567 59.359091 
L 339.916759 58.041818 
L 340.704246 57.755455 
L 341.590168 57.125455 
L 342.377655 56.380909 
L 344.838551 54.949091 
L 345.675256 54.834545 
L 347.299447 54.319091 
L 348.086934 54.147273 
L 350.54783 53.001818 
L 355.51884 49.164545 
L 356.306327 48.362727 
L 357.143032 47.961818 
L 357.930519 47.331818 
L 358.767223 46.816364 
L 359.55471 46.587273 
L 361.228119 45.9 
L 366.149912 45.327273 
L 367.035834 45.327273 
L 371.071704 44.811818 
L 373.581818 44.64 
L 373.581818 44.64 
" clip-path="url(#pe2d7f53679)" style="fill: none; stroke: #1f77b4; stroke-width: 1.5; stroke-linecap: square"/>
   </g>
   <g id="line2d_32">
    <path d="M 69.218182 217.431818 
L 70.005669 217.546364 
L 74.927461 217.489091 
L 82.310149 217.088182 
L 86.444455 217.26 
L 105.294919 217.202727 
L 115.975209 216.515455 
L 118.436105 216.572727 
L 120.060296 216.744545 
L 126.60628 217.088182 
L 136.449865 216.458182 
L 143.832553 216.859091 
L 147.966859 216.801818 
L 149.59105 216.744545 
L 155.349547 216.801818 
L 156.973739 216.859091 
L 168.441515 216.916364 
L 173.363307 217.145455 
L 178.285099 217.202727 
L 183.206892 217.431818 
L 185.667788 217.489091 
L 188.128684 217.546364 
L 192.26299 217.489091 
L 193.887181 217.431818 
L 197.184782 217.489091 
L 198.808973 217.546364 
L 202.106574 217.603636 
L 203.730766 217.660909 
L 212.786863 217.603636 
L 214.411055 217.546364 
L 223.467153 217.489091 
L 225.042126 217.431818 
L 232.424815 217.374545 
L 236.55912 217.202727 
L 239.020016 217.26 
L 242.268399 217.374545 
L 249.651088 217.317273 
L 252.111984 217.26 
L 254.57288 217.317273 
L 279.23106 217.26 
L 280.855251 217.202727 
L 285.777043 217.26 
L 288.23794 217.374545 
L 290.698836 217.317273 
L 292.323027 217.145455 
L 297.244819 217.202727 
L 299.705716 217.26 
L 302.954099 217.145455 
L 307.925109 217.202727 
L 312.010196 217.431818 
L 313.634388 217.489091 
L 316.981207 217.775455 
L 318.55618 218.004545 
L 322.690486 217.947273 
L 327.612278 217.489091 
L 328.399765 217.374545 
L 329.236469 217.374545 
L 330.860661 217.26 
L 332.53407 217.202727 
L 334.158262 216.973636 
L 334.945749 216.801818 
L 339.080054 217.088182 
L 340.704246 217.317273 
L 341.590168 217.489091 
L 344.051064 218.634545 
L 344.838551 218.749091 
L 345.675256 218.691818 
L 347.299447 218.290909 
L 348.923639 217.947273 
L 349.711125 217.718182 
L 350.54783 217.660909 
L 351.384535 217.431818 
L 353.845431 217.145455 
L 356.306327 217.202727 
L 357.930519 217.374545 
L 365.313207 218.290909 
L 367.774103 218.348182 
L 370.234999 218.290909 
L 373.581818 218.233636 
L 373.581818 218.233636 
" clip-path="url(#pe2d7f53679)" style="fill: none; stroke: #ff7f0e; stroke-width: 1.5; stroke-linecap: square"/>
   </g>
   <g id="line2d_33">
    <path d="M 69.218182 243.09 
L 70.005669 243.261818 
L 70.842373 243.261818 
L 72.466565 243.376364 
L 74.139974 243.433636 
L 79.061766 243.147273 
L 83.146854 243.204545 
L 87.231942 243.548182 
L 96.28804 244.693636 
L 97.912231 244.750909 
L 100.373127 244.808182 
L 102.834023 244.693636 
L 105.294919 244.750909 
L 107.755816 245.037273 
L 109.380007 245.323636 
L 111.053416 245.495455 
L 111.840903 245.667273 
L 114.301799 245.61 
L 120.897001 244.636364 
L 123.357897 244.178182 
L 124.145384 244.063636 
L 125.818793 244.120909 
L 129.067176 244.636364 
L 131.528072 245.209091 
L 132.364777 245.266364 
L 134.825673 245.839091 
L 136.449865 246.125455 
L 138.910761 246.182727 
L 141.371657 245.953636 
L 143.832553 245.380909 
L 147.966859 245.209091 
L 152.051946 245.61 
L 153.676138 245.839091 
L 156.137034 246.068182 
L 158.59793 246.010909 
L 163.519722 245.438182 
L 168.441515 245.380909 
L 175.824203 244.98 
L 185.667788 245.552727 
L 188.128684 245.323636 
L 191.426285 244.98 
L 192.26299 244.98 
L 193.050476 244.865455 
L 193.887181 244.865455 
L 196.348077 244.579091 
L 198.808973 244.636364 
L 203.730766 245.266364 
L 207.028366 245.209091 
L 218.496143 244.464545 
L 220.957039 244.407273 
L 224.25464 244.292727 
L 228.339727 244.235455 
L 237.346607 243.662727 
L 239.020016 243.72 
L 241.480913 243.777273 
L 243.105104 243.949091 
L 245.566 244.006364 
L 247.190192 243.949091 
L 248.026896 243.834545 
L 249.651088 243.777273 
L 252.111984 243.72 
L 275.096754 243.662727 
L 280.018546 243.433636 
L 285.777043 243.72 
L 287.401235 243.662727 
L 290.698836 243.490909 
L 292.323027 243.548182 
L 295.620628 243.490909 
L 297.244819 243.433636 
L 308.712596 243.490909 
L 314.471093 243.949091 
L 316.095284 244.35 
L 317.768693 244.636364 
L 322.690486 245.953636 
L 324.314677 246.010909 
L 326.775573 245.61 
L 327.612278 245.380909 
L 328.399765 244.922727 
L 329.236469 244.693636 
L 331.746584 243.147273 
L 332.53407 241.715455 
L 333.321557 241.600909 
L 334.158262 241.772727 
L 334.945749 242.116364 
L 335.782453 242.288182 
L 337.455863 242.46 
L 339.080054 242.746364 
L 341.590168 243.204545 
L 343.21436 243.949091 
L 344.051064 244.178182 
L 345.675256 244.063636 
L 347.299447 243.605455 
L 348.086934 243.490909 
L 349.711125 243.032727 
L 352.270457 242.918182 
L 353.845431 243.147273 
L 354.682136 243.261818 
L 356.306327 243.72 
L 357.143032 243.777273 
L 358.767223 244.235455 
L 362.064824 244.407273 
L 362.852311 244.407273 
L 367.774103 243.834545 
L 371.859191 244.006364 
L 373.581818 244.063636 
L 373.581818 244.063636 
" clip-path="url(#pe2d7f53679)" style="fill: none; stroke: #2ca02c; stroke-width: 1.5; stroke-linecap: square"/>
   </g>
   <g id="patch_3">
    <path d="M 54 256.32 
L 54 34.56 
" style="fill: none; stroke: #000000; stroke-width: 0.8; stroke-linejoin: miter; stroke-linecap: square"/>
   </g>
   <g id="patch_4">
    <path d="M 388.8 256.32 
L 388.8 34.56 
" style="fill: none; stroke: #000000; stroke-width: 0.8; stroke-linejoin: miter; stroke-linecap: square"/>
   </g>
   <g id="patch_5">
    <path d="M 54 256.32 
L 388.8 256.32 
" style="fill: none; stroke: #000000; stroke-width: 0.8; stroke-linejoin: miter; stroke-linecap: square"/>
   </g>
   <g id="patch_6">
    <path d="M 54 34.56 
L 388.8 34.56 
" style="fill: none; stroke: #000000; stroke-width: 0.8; stroke-linejoin: miter; stroke-linecap: square"/>
   </g>
   <g id="text_18">
    <!-- Device Orientation — 45 degrees tilt -->
    <g transform="translate(111.647813 28.56) scale(0.12 -0.12)">
     <defs>
      <path id="DejaVuSans-44" d="M 1259 4147 
L 1259 519 
L 2022 519 
Q 2988 519 3436 956 
Q 3884 1394 3884 2338 
Q 3884 3275 3436 3711 
Q 2988 4147 2022 4147 
L 1259 4147 
z
M 628 4666 
L 1925 4666 
Q 3281 4666 3915 4102 
Q 4550 3538 4550 2338 
Q 4550 1131 3912 565 
Q 3275 0 1925 0 
L 628 0 
L 628 4666 
z
" transform="scale(0.015625)"/>
      <path id="DejaVuSans-76" d="M 191 3500 
L 800 3500 
L 1894 563 
L 2988 3500 
L 3597 3500 
L 2284 0 
L 1503 0 
L 191 3500 
z
" transform="scale(0.015625)"/>
      <path id="DejaVuSans-4f" d="M 2522 4238 
Q 1834 4238 1429 3725 
Q 1025 3213 1025 2328 
Q 1025 1447 1429 934 
Q 1834 422 2522 422 
Q 3209 422 3611 934 
Q 4013 1447 4013 2328 
Q 4013 3213 3611 3725 
Q 3209 4238 2522 4238 
z
M 2522 4750 
Q 3503 4750 4090 4092 
Q 4678 3434 4678 2328 
Q 4678 1225 4090 567 
Q 3503 -91 2522 -91 
Q 1538 -91 948 565 
Q 359 1222 359 2328 
Q 359 3434 948 4092 
Q 1538 4750 2522 4750 
z
" transform="scale(0.015625)"/>
      <path id="DejaVuSans-74" d="M 1172 4494 
L 1172 3500 
L 2356 3500 
L 2356 3053 
L 1172 3053 
L 1172 1153 
Q 1172 725 1289 603 
Q 1406 481 1766 481 
L 2356 481 
L 2356 0 
L 1766 0 
Q 1100 0 847 248 
Q 594 497 594 1153 
L 594 3053 
L 172 3053 
L 172 3500 
L 594 3500 
L 594 4494 
L 1172 4494 
z
" transform="scale(0.015625)"/>
      <path id="DejaVuSans-61" d="M 2194 1759 
Q 1497 1759 1228 1600 
Q 959 1441 959 1056 
Q 959 750 1161 570 
Q 1363 391 1709 391 
Q 2188 391 2477 730 
Q 2766 1069 2766 1631 
L 2766 1759 
L 2194 1759 
z
M 3341 1997 
L 3341 0 
L 2766 0 
L 2766 531 
Q 2569 213 2275 61 
Q 1981 -91 1556 -91 
Q 1019 -91 701 211 
Q 384 513 384 1019 
Q 384 1609 779 1909 
Q 1175 2209 1959 2209 
L 2766 2209 
L 2766 2266 
Q 2766 2663 2505 2880 
Q 2244 3097 1772 3097 
Q 1472 3097 1187 3025 
Q 903 2953 641 2809 
L 641 3341 
Q 956 3463 1253 3523 
Q 1550 3584 1831 3584 
Q 2591 3584 2966 3190 
Q 3341 2797 3341 1997 
z
" transform="scale(0.015625)"/>
      <path id="DejaVuSans-2014" d="M 313 1978 
L 6088 1978 
L 6088 1528 
L 313 1528 
L 313 1978 
z
" transform="scale(0.015625)"/>
     </defs>
     <use xlink:href="#DejaVuSans-44"/>
     <use xlink:href="#DejaVuSans-65" transform="translate(77.001953 0)"/>
     <use xlink:href="#DejaVuSans-76" transform="translate(138.525391 0)"/>
     <use xlink:href="#DejaVuSans-69" transform="translate(197.705078 0)"/>
     <use xlink:href="#DejaVuSans-63" transform="translate(225.488281 0)"/>
     <use xlink:href="#DejaVuSans-65" transform="translate(280.46875 0)"/>
     <use xlink:href="#DejaVuSans-20" transform="translate(341.992188 0)"/>
     <use xlink:href="#DejaVuSans-4f" transform="translate(373.779297 0)"/>
     <use xlink:href="#DejaVuSans-72" transform="translate(452.490234 0)"/>
     <use xlink:href="#DejaVuSans-69" transform="translate(493.603516 0)"/>
     <use xlink:href="#DejaVuSans-65" transform="translate(521.386719 0)"/>
     <use xlink:href="#DejaVuSans-6e" transform="translate(582.910156 0)"/>
     <use xlink:href="#DejaVuSans-74" transform="translate(646.289062 0)"/>
     <use xlink:href="#DejaVuSans-61" transform="translate(685.498047 0)"/>
     <use xlink:href="#DejaVuSans-74" transform="translate(746.777344 0)"/>
     <use xlink:href="#DejaVuSans-69" transform="translate(785.986328 0)"/>
     <use xlink:href="#DejaVuSans-6f" transform="translate(813.769531 0)"/>
     <use xlink:href="#DejaVuSans-6e" transform="translate(874.951172 0)"/>
     <use xlink:href="#DejaVuSans-20" transform="translate(938.330078 0)"/>
     <use xlink:href="#DejaVuSans-2014" transform="translate(970.117188 0)"/>
     <use xlink:href="#DejaVuSans-20" transform="translate(1070.117188 0)"/>
     <use xlink:href="#DejaVuSans-34" transform="translate(1101.904297 0)"/>
     <use xlink:href="#DejaVuSans-35" transform="translate(1165.527344 0)"/>
     <use xlink:href="#DejaVuSans-20" transform="translate(1229.150391 0)"/>
     <use xlink:href="#DejaVuSans-64" transform="translate(1260.9375 0)"/>
     <use xlink:href="#DejaVuSans-65" transform="translate(1324.414062 0)"/>
     <use xlink:href="#DejaVuSans-67" transform="translate(1385.9375 0)"/>
     <use xlink:href="#DejaVuSans-72" transform="translate(1449.414062 0)"/>
     <use xlink:href="#DejaVuSans-65" transform="translate(1488.277344 0)"/>
     <use xlink:href="#DejaVuSans-65" transform="translate(1549.800781 0)"/>
     <use xlink:href="#DejaVuSans-73" transform="translate(1611.324219 0)"/>
     <use xlink:href="#DejaVuSans-20" transform="translate(1663.423828 0)"/>
     <use xlink:href="#DejaVuSans-74" transform="translate(1695.210938 0)"/>
     <use xlink:href="#DejaVuSans-69" transform="translate(1734.419922 0)"/>
     <use xlink:href="#DejaVuSans-6c" transform="translate(1762.203125 0)"/>
     <use xlink:href="#DejaVuSans-74" transform="translate(1789.986328 0)"/>
    </g>
   </g>
   <g id="legend_1">
    <g id="patch_7">
     <path d="M 61 86.594375 
L 149.575 86.594375 
Q 151.575 86.594375 151.575 84.594375 
L 151.575 41.56 
Q 151.575 39.56 149.575 39.56 
L 61 39.56 
Q 59 39.56 59 41.56 
L 59 84.594375 
Q 59 86.594375 61 86.594375 
z
" style="fill: #ffffff; opacity: 0.8; stroke: #cccccc; stroke-linejoin: miter"/>
    </g>
    <g id="line2d_34">
     <path d="M 63 47.658438 
L 73 47.658438 
L 83 47.658438 
" style="fill: none; stroke: #1f77b4; stroke-width: 1.5; stroke-linecap: square"/>
    </g>
    <g id="text_19">
     <!-- Alpha (Z) -->
     <g transform="translate(91 51.158438) scale(0.1 -0.1)">
      <defs>
       <path id="DejaVuSans-70" d="M 1159 525 
L 1159 -1331 
L 581 -1331 
L 581 3500 
L 1159 3500 
L 1159 2969 
Q 1341 3281 1617 3432 
Q 1894 3584 2278 3584 
Q 2916 3584 3314 3078 
Q 3713 2572 3713 1747 
Q 3713 922 3314 415 
Q 2916 -91 2278 -91 
Q 1894 -91 1617 61 
Q 1341 213 1159 525 
z
M 3116 1747 
Q 3116 2381 2855 2742 
Q 2594 3103 2138 3103 
Q 1681 3103 1420 2742 
Q 1159 2381 1159 1747 
Q 1159 1113 1420 752 
Q 1681 391 2138 391 
Q 2594 391 2855 752 
Q 3116 1113 3116 1747 
z
" transform="scale(0.015625)"/>
       <path id="DejaVuSans-68" d="M 3513 2113 
L 3513 0 
L 2938 0 
L 2938 2094 
Q 2938 2591 2744 2837 
Q 2550 3084 2163 3084 
Q 1697 3084 1428 2787 
Q 1159 2491 1159 1978 
L 1159 0 
L 581 0 
L 581 4863 
L 1159 4863 
L 1159 2956 
Q 1366 3272 1645 3428 
Q 1925 3584 2291 3584 
Q 2894 3584 3203 3211 
Q 3513 2838 3513 2113 
z
" transform="scale(0.015625)"/>
       <path id="DejaVuSans-5a" d="M 359 4666 
L 4025 4666 
L 4025 4184 
L 1075 531 
L 4097 531 
L 4097 0 
L 288 0 
L 288 481 
L 3238 4134 
L 359 4134 
L 359 4666 
z
" transform="scale(0.015625)"/>
      </defs>
      <use xlink:href="#DejaVuSans-41"/>
      <use xlink:href="#DejaVuSans-6c" transform="translate(68.408203 0)"/>
      <use xlink:href="#DejaVuSans-70" transform="translate(96.191406 0)"/>
      <use xlink:href="#DejaVuSans-68" transform="translate(159.667969 0)"/>
      <use xlink:href="#DejaVuSans-61" transform="translate(223.046875 0)"/>
      <use xlink:href="#DejaVuSans-20" transform="translate(284.326172 0)"/>
      <use xlink:href="#DejaVuSans-28" transform="translate(316.113281 0)"/>
      <use xlink:href="#DejaVuSans-5a" transform="translate(355.126953 0)"/>
      <use xlink:href="#DejaVuSans-29" transform="translate(423.632812 0)"/>
     </g>
    </g>
    <g id="line2d_35">
     <path d="M 63 62.336563 
L 73 62.336563 
L 83 62.336563 
" style="fill: none; stroke: #ff7f0e; stroke-width: 1.5; stroke-linecap: square"/>
    </g>
    <g id="text_20">
     <!-- Beta (X) -->
     <g transform="translate(91 65.836563) scale(0.1 -0.1)">
      <defs>
       <path id="DejaVuSans-42" d="M 1259 2228 
L 1259 519 
L 2272 519 
Q 2781 519 3026 730 
Q 3272 941 3272 1375 
Q 3272 1813 3026 2020 
Q 2781 2228 2272 2228 
L 1259 2228 
z
M 1259 4147 
L 1259 2741 
L 2194 2741 
Q 2656 2741 2882 2914 
Q 3109 3088 3109 3444 
Q 3109 3797 2882 3972 
Q 2656 4147 2194 4147 
L 1259 4147 
z
M 628 4666 
L 2241 4666 
Q 2963 4666 3353 4366 
Q 3744 4066 3744 3513 
Q 3744 3084 3544 2831 
Q 3344 2578 2956 2516 
Q 3422 2416 3680 2098 
Q 3938 1781 3938 1306 
Q 3938 681 3513 340 
Q 3088 0 2303 0 
L 628 0 
L 628 4666 
z
" transform="scale(0.015625)"/>
       <path id="DejaVuSans-58" d="M 403 4666 
L 1081 4666 
L 2241 2931 
L 3406 4666 
L 4084 4666 
L 2584 2425 
L 4184 0 
L 3506 0 
L 2194 1984 
L 872 0 
L 191 0 
L 1856 2491 
L 403 4666 
z
" transform="scale(0.015625)"/>
      </defs>
      <use xlink:href="#DejaVuSans-42"/>
      <use xlink:href="#DejaVuSans-65" transform="translate(68.603516 0)"/>
      <use xlink:href="#DejaVuSans-74" transform="translate(130.126953 0)"/>
      <use xlink:href="#DejaVuSans-61" transform="translate(169.335938 0)"/>
      <use xlink:href="#DejaVuSans-20" transform="translate(230.615234 0)"/>
      <use xlink:href="#DejaVuSans-28" transform="translate(262.402344 0)"/>
      <use xlink:href="#DejaVuSans-58" transform="translate(301.416016 0)"/>
      <use xlink:href="#DejaVuSans-29" transform="translate(369.921875 0)"/>
     </g>
    </g>
    <g id="line2d_36">
     <path d="M 63 77.014688 
L 73 77.014688 
L 83 77.014688 
" style="fill: none; stroke: #2ca02c; stroke-width: 1.5; stroke-linecap: square"/>
    </g>
    <g id="text_21">
     <!-- Gamma (Y) -->
     <g transform="translate(91 80.514688) scale(0.1 -0.1)">
      <defs>
       <path id="DejaVuSans-47" d="M 3809 666 
L 3809 1919 
L 2778 1919 
L 2778 2438 
L 4434 2438 
L 4434 434 
Q 4069 175 3628 42 
Q 3188 -91 2688 -91 
Q 1594 -91 976 548 
Q 359 1188 359 2328 
Q 359 3472 976 4111 
Q 1594 4750 2688 4750 
Q 3144 4750 3555 4637 
Q 3966 4525 4313 4306 
L 4313 3634 
Q 3963 3931 3569 4081 
Q 3175 4231 2741 4231 
Q 1884 4231 1454 3753 
Q 1025 3275 1025 2328 
Q 1025 1384 1454 906 
Q 1884 428 2741 428 
Q 3075 428 3337 486 
Q 3600 544 3809 666 
z
" transform="scale(0.015625)"/>
       <path id="DejaVuSans-59" d="M -13 4666 
L 666 4666 
L 1959 2747 
L 3244 4666 
L 3922 4666 
L 2272 2222 
L 2272 0 
L 1638 0 
L 1638 2222 
L -13 4666 
z
" transform="scale(0.015625)"/>
      </defs>
      <use xlink:href="#DejaVuSans-47"/>
      <use xlink:href="#DejaVuSans-61" transform="translate(77.490234 0)"/>
      <use xlink:href="#DejaVuSans-6d" transform="translate(138.769531 0)"/>
      <use xlink:href="#DejaVuSans-6d" transform="translate(236.181641 0)"/>
      <use xlink:href="#DejaVuSans-61" transform="translate(333.59375 0)"/>
      <use xlink:href="#DejaVuSans-20" transform="translate(394.873047 0)"/>
      <use xlink:href="#DejaVuSans-28" transform="translate(426.660156 0)"/>
      <use xlink:href="#DejaVuSans-59" transform="translate(465.673828 0)"/>
      <use xlink:href="#DejaVuSans-29" transform="translate(526.757812 0)"/>
     </g>
    </g>
   </g>
  </g>
 </g>
 <defs>
  <clipPath id="pe2d7f53679">
   <rect x="54" y="34.56" width="334.8" height="221.76"/>
  </clipPath>
 </defs>
</svg>
