<?xml version="1.0" encoding="utf-8" standalone="no"?>
<!DOCTYPE svg PUBLIC "-//W3C//DTD SVG 1.1//EN"
  "http://www.w3.org/Graphics/SVG/1.1/DTD/svg11.dtd">
<svg xmlns:xlink="http://www.w3.org/1999/xlink" width="432pt" height="288pt" viewBox="0 0 432 288" xmlns="http://www.w3.org/2000/svg" version="1.1">
 <metadata>
  <rdf:RDF xmlns:dc="http://purl.org/dc/elements/1.1/" xmlns:cc="http://creativecommons.org/ns#" xmlns:rdf="http://www.w3.org/1999/02/22-rdf-syntax-ns#">
   <cc:Work>
    <dc:type rdf:resource="http://purl.org/dc/dcmitype/StillImage"/>
    <dc:date>1980-01-01T00:00:00+00:00</dc:date>
    <dc:format>image/svg+xml</dc:format>
    <dc:creator>
     <cc:Agent>
      <dc:title>Matplotlib v3.10.5, https://matplotlib.org/</dc:title>
     </cc:Agent>
    </dc:creator>
   </cc:Work>
  </rdf:RDF>
 </metadata>
 <defs>
  <style type="text/css">*{stroke-linejoin: round; stroke-linecap: butt}</style>
 </defs>
 <g id="figure_1">
  <g id="patch_1">
   <path d="M 0 288 
L 432 288 
L 432 0 
L 0 0 
z
" style="fill: #ffffff"/>
  </g>
  <g id="axes_1">
   <g id="patch_2">
    <path d="M 54 256.32 
L 388.8 256.32 
L 388.8 34.56 
L 54 34.56 
z
" style="fill: #ffffff"/>
   </g>
   <g id="matplotlib.axis_1">
    <g id="xtick_1">
     <g id="line2d_1">
      <path d="M 69.218182 256.32 
L 69.218182 34.56 
" clip-path="url(#p1f7915bfa5)" style="fill: none; stroke: #b0b0b0; stroke-width: 0.8; stroke-linecap: square"/>
     </g>
     <g id="line2d_2">
      <defs>
       <path id="mf70ef192cf" d="M 0 0 
L 0 3.5 
" style="stroke: #000000; stroke-width: 0.8"/>
      </defs>
      <g>
       <use xlink:href="#mf70ef192cf" x="69.218182" y="256.32" style="stroke: #000000; stroke-width: 0.8"/>
      </g>
     </g>
     <g id="text_1">
      <!-- 0 -->
      <g transform="translate(66.036932 270.918437) scale(0.1 -0.1)">
       <defs>
        <path id="DejaVuSans-30" d="M 2034 4250 
Q 1547 4250 1301 3770 
Q 1056 3291 1056 2328 
Q 1056 1369 1301 889 
Q 1547 409 2034 409 
Q 2525 409 2770 889 
Q 3016 1369 3016 2328 
Q 3016 3291 2770 3770 
Q 2525 4250 2034 4250 
z
M 2034 4750 
Q 2819 4750 3233 4129 
Q 3647 3509 3647 2328 
Q 3647 1150 3233 529 
Q 2819 -91 2034 -91 
Q 1250 -91 836 529 
Q 422 1150 422 2328 
Q 422 3509 836 4129 
Q 1250 4750 2034 4750 
z
" transform="scale(0.015625)"/>
       </defs>
       <use xlink:href="#DejaVuSans-30"/>
      </g>
     </g>
    </g>
    <g id="xtick_2">
     <g id="line2d_3">
      <path d="M 125.749318 256.32 
L 125.749318 34.56 
" clip-path="url(#p1f7915bfa5)" style="fill: none; stroke: #b0b0b0; stroke-width: 0.8; stroke-linecap: square"/>
     </g>
     <g id="line2d_4">
      <g>
       <use xlink:href="#mf70ef192cf" x="125.749318" y="256.32" style="stroke: #000000; stroke-width: 0.8"/>
      </g>
     </g>
     <g id="text_2">
      <!-- 1 -->
      <g transform="translate(122.568068 270.918437) scale(0.1 -0.1)">
       <defs>
        <path id="DejaVuSans-31" d="M 794 531 
L 1825 531 
L 1825 4091 
L 703 3866 
L 703 4441 
L 1819 4666 
L 2450 4666 
L 2450 531 
L 3481 531 
L 3481 0 
L 794 0 
L 794 531 
z
" transform="scale(0.015625)"/>
       </defs>
       <use xlink:href="#DejaVuSans-31"/>
      </g>
     </g>
    </g>
    <g id="xtick_3">
     <g id="line2d_5">
      <path d="M 182.280454 256.32 
L 182.280454 34.56 
" clip-path="url(#p1f7915bfa5)" style="fill: none; stroke: #b0b0b0; stroke-width: 0.8; stroke-linecap: square"/>
     </g>
     <g id="line2d_6">
      <g>
       <use xlink:href="#mf70ef192cf" x="182.280454" y="256.32" style="stroke: #000000; stroke-width: 0.8"/>
      </g>
     </g>
     <g id="text_3">
      <!-- 2 -->
      <g transform="translate(179.099204 270.918437) scale(0.1 -0.1)">
       <defs>
        <path id="DejaVuSans-32" d="M 1228 531 
L 3431 531 
L 3431 0 
L 469 0 
L 469 531 
Q 828 903 1448 1529 
Q 2069 2156 2228 2338 
Q 2531 2678 2651 2914 
Q 2772 3150 2772 3378 
Q 2772 3750 2511 3984 
Q 2250 4219 1831 4219 
Q 1534 4219 1204 4116 
Q 875 4013 500 3803 
L 500 4441 
Q 881 4594 1212 4672 
Q 1544 4750 1819 4750 
Q 2544 4750 2975 4387 
Q 3406 4025 3406 3419 
Q 3406 3131 3298 2873 
Q 3191 2616 2906 2266 
Q 2828 2175 2409 1742 
Q 1991 1309 1228 531 
z
" transform="scale(0.015625)"/>
       </defs>
       <use xlink:href="#DejaVuSans-32"/>
      </g>
     </g>
    </g>
    <g id="xtick_4">
     <g id="line2d_7">
      <path d="M 238.81159 256.32 
L 238.81159 34.56 
" clip-path="url(#p1f7915bfa5)" style="fill: none; stroke: #b0b0b0; stroke-width: 0.8; stroke-linecap: square"/>
     </g>
     <g id="line2d_8">
      <g>
       <use xlink:href="#mf70ef192cf" x="238.81159" y="256.32" style="stroke: #000000; stroke-width: 0.8"/>
      </g>
     </g>
     <g id="text_4">
      <!-- 3 -->
      <g transform="translate(235.63034 270.918437) scale(0.1 -0.1)">
       <defs>
        <path id="DejaVuSans-33" d="M 2597 2516 
Q 3050 2419 3304 2112 
Q 3559 1806 3559 1356 
Q 3559 666 3084 287 
Q 2609 -91 1734 -91 
Q 1441 -91 1130 -33 
Q 819 25 488 141 
L 488 750 
Q 750 597 1062 519 
Q 1375 441 1716 441 
Q 2309 441 2620 675 
Q 2931 909 2931 1356 
Q 2931 1769 2642 2001 
Q 2353 2234 1838 2234 
L 1294 2234 
L 1294 2753 
L 1863 2753 
Q 2328 2753 2575 2939 
Q 2822 3125 2822 3475 
Q 2822 3834 2567 4026 
Q 2313 4219 1838 4219 
Q 1578 4219 1281 4162 
Q 984 4106 628 3988 
L 628 4550 
Q 988 4650 1302 4700 
Q 1616 4750 1894 4750 
Q 2613 4750 3031 4423 
Q 3450 4097 3450 3541 
Q 3450 3153 3228 2886 
Q 3006 2619 2597 2516 
z
" transform="scale(0.015625)"/>
       </defs>
       <use xlink:href="#DejaVuSans-33"/>
      </g>
     </g>
    </g>
    <g id="xtick_5">
     <g id="line2d_9">
      <path d="M 295.342726 256.32 
L 295.342726 34.56 
" clip-path="url(#p1f7915bfa5)" style="fill: none; stroke: #b0b0b0; stroke-width: 0.8; stroke-linecap: square"/>
     </g>
     <g id="line2d_10">
      <g>
       <use xlink:href="#mf70ef192cf" x="295.342726" y="256.32" style="stroke: #000000; stroke-width: 0.8"/>
      </g>
     </g>
     <g id="text_5">
      <!-- 4 -->
      <g transform="translate(292.161476 270.918437) scale(0.1 -0.1)">
       <defs>
        <path id="DejaVuSans-34" d="M 2419 4116 
L 825 1625 
L 2419 1625 
L 2419 4116 
z
M 2253 4666 
L 3047 4666 
L 3047 1625 
L 3713 1625 
L 3713 1100 
L 3047 1100 
L 3047 0 
L 2419 0 
L 2419 1100 
L 313 1100 
L 313 1709 
L 2253 4666 
z
" transform="scale(0.015625)"/>
       </defs>
       <use xlink:href="#DejaVuSans-34"/>
      </g>
     </g>
    </g>
    <g id="xtick_6">
     <g id="line2d_11">
      <path d="M 351.873862 256.32 
L 351.873862 34.56 
" clip-path="url(#p1f7915bfa5)" style="fill: none; stroke: #b0b0b0; stroke-width: 0.8; stroke-linecap: square"/>
     </g>
     <g id="line2d_12">
      <g>
       <use xlink:href="#mf70ef192cf" x="351.873862" y="256.32" style="stroke: #000000; stroke-width: 0.8"/>
      </g>
     </g>
     <g id="text_6">
      <!-- 5 -->
      <g transform="translate(348.692612 270.918437) scale(0.1 -0.1)">
       <defs>
        <path id="DejaVuSans-35" d="M 691 4666 
L 3169 4666 
L 3169 4134 
L 1269 4134 
L 1269 2991 
Q 1406 3038 1543 3061 
Q 1681 3084 1819 3084 
Q 2600 3084 3056 2656 
Q 3513 2228 3513 1497 
Q 3513 744 3044 326 
Q 2575 -91 1722 -91 
Q 1428 -91 1123 -41 
Q 819 9 494 109 
L 494 744 
Q 775 591 1075 516 
Q 1375 441 1709 441 
Q 2250 441 2565 725 
Q 2881 1009 2881 1497 
Q 2881 1984 2565 2268 
Q 2250 2553 1709 2553 
Q 1456 2553 1204 2497 
Q 953 2441 691 2322 
L 691 4666 
z
" transform="scale(0.015625)"/>
       </defs>
       <use xlink:href="#DejaVuSans-35"/>
      </g>
     </g>
    </g>
    <g id="text_7">
     <!-- Time (seconds) -->
     <g transform="translate(183.238281 284.596563) scale(0.1 -0.1)">
      <defs>
       <path id="DejaVuSans-54" d="M -19 4666 
L 3928 4666 
L 3928 4134 
L 2272 4134 
L 2272 0 
L 1638 0 
L 1638 4134 
L -19 4134 
L -19 4666 
z
" transform="scale(0.015625)"/>
       <path id="DejaVuSans-69" d="M 603 3500 
L 1178 3500 
L 1178 0 
L 603 0 
L 603 3500 
z
M 603 4863 
L 1178 4863 
L 1178 4134 
L 603 4134 
L 603 4863 
z
" transform="scale(0.015625)"/>
       <path id="DejaVuSans-6d" d="M 3328 2828 
Q 3544 3216 3844 3400 
Q 4144 3584 4550 3584 
Q 5097 3584 5394 3201 
Q 5691 2819 5691 2113 
L 5691 0 
L 5113 0 
L 5113 2094 
Q 5113 2597 4934 2840 
Q 4756 3084 4391 3084 
Q 3944 3084 3684 2787 
Q 3425 2491 3425 1978 
L 3425 0 
L 2847 0 
L 2847 2094 
Q 2847 2600 2669 2842 
Q 2491 3084 2119 3084 
Q 1678 3084 1418 2786 
Q 1159 2488 1159 1978 
L 1159 0 
L 581 0 
L 581 3500 
L 1159 3500 
L 1159 2956 
Q 1356 3278 1631 3431 
Q 1906 3584 2284 3584 
Q 2666 3584 2933 3390 
Q 3200 3197 3328 2828 
z
" transform="scale(0.015625)"/>
       <path id="DejaVuSans-65" d="M 3597 1894 
L 3597 1613 
L 953 1613 
Q 991 1019 1311 708 
Q 1631 397 2203 397 
Q 2534 397 2845 478 
Q 3156 559 3463 722 
L 3463 178 
Q 3153 47 2828 -22 
Q 2503 -91 2169 -91 
Q 1331 -91 842 396 
Q 353 884 353 1716 
Q 353 2575 817 3079 
Q 1281 3584 2069 3584 
Q 2775 3584 3186 3129 
Q 3597 2675 3597 1894 
z
M 3022 2063 
Q 3016 2534 2758 2815 
Q 2500 3097 2075 3097 
Q 1594 3097 1305 2825 
Q 1016 2553 972 2059 
L 3022 2063 
z
" transform="scale(0.015625)"/>
       <path id="DejaVuSans-20" transform="scale(0.015625)"/>
       <path id="DejaVuSans-28" d="M 1984 4856 
Q 1566 4138 1362 3434 
Q 1159 2731 1159 2009 
Q 1159 1288 1364 580 
Q 1569 -128 1984 -844 
L 1484 -844 
Q 1016 -109 783 600 
Q 550 1309 550 2009 
Q 550 2706 781 3412 
Q 1013 4119 1484 4856 
L 1984 4856 
z
" transform="scale(0.015625)"/>
       <path id="DejaVuSans-73" d="M 2834 3397 
L 2834 2853 
Q 2591 2978 2328 3040 
Q 2066 3103 1784 3103 
Q 1356 3103 1142 2972 
Q 928 2841 928 2578 
Q 928 2378 1081 2264 
Q 1234 2150 1697 2047 
L 1894 2003 
Q 2506 1872 2764 1633 
Q 3022 1394 3022 966 
Q 3022 478 2636 193 
Q 2250 -91 1575 -91 
Q 1294 -91 989 -36 
Q 684 19 347 128 
L 347 722 
Q 666 556 975 473 
Q 1284 391 1588 391 
Q 1994 391 2212 530 
Q 2431 669 2431 922 
Q 2431 1156 2273 1281 
Q 2116 1406 1581 1522 
L 1381 1569 
Q 847 1681 609 1914 
Q 372 2147 372 2553 
Q 372 3047 722 3315 
Q 1072 3584 1716 3584 
Q 2034 3584 2315 3537 
Q 2597 3491 2834 3397 
z
" transform="scale(0.015625)"/>
       <path id="DejaVuSans-63" d="M 3122 3366 
L 3122 2828 
Q 2878 2963 2633 3030 
Q 2388 3097 2138 3097 
Q 1578 3097 1268 2742 
Q 959 2388 959 1747 
Q 959 1106 1268 751 
Q 1578 397 2138 397 
Q 2388 397 2633 464 
Q 2878 531 3122 666 
L 3122 134 
Q 2881 22 2623 -34 
Q 2366 -91 2075 -91 
Q 1284 -91 818 406 
Q 353 903 353 1747 
Q 353 2603 823 3093 
Q 1294 3584 2113 3584 
Q 2378 3584 2631 3529 
Q 2884 3475 3122 3366 
z
" transform="scale(0.015625)"/>
       <path id="DejaVuSans-6f" d="M 1959 3097 
Q 1497 3097 1228 2736 
Q 959 2375 959 1747 
Q 959 1119 1226 758 
Q 1494 397 1959 397 
Q 2419 397 2687 759 
Q 2956 1122 2956 1747 
Q 2956 2369 2687 2733 
Q 2419 3097 1959 3097 
z
M 1959 3584 
Q 2709 3584 3137 3096 
Q 3566 2609 3566 1747 
Q 3566 888 3137 398 
Q 2709 -91 1959 -91 
Q 1206 -91 779 398 
Q 353 888 353 1747 
Q 353 2609 779 3096 
Q 1206 3584 1959 3584 
z
" transform="scale(0.015625)"/>
       <path id="DejaVuSans-6e" d="M 3513 2113 
L 3513 0 
L 2938 0 
L 2938 2094 
Q 2938 2591 2744 2837 
Q 2550 3084 2163 3084 
Q 1697 3084 1428 2787 
Q 1159 2491 1159 1978 
L 1159 0 
L 581 0 
L 581 3500 
L 1159 3500 
L 1159 2956 
Q 1366 3272 1645 3428 
Q 1925 3584 2291 3584 
Q 2894 3584 3203 3211 
Q 3513 2838 3513 2113 
z
" transform="scale(0.015625)"/>
       <path id="DejaVuSans-64" d="M 2906 2969 
L 2906 4863 
L 3481 4863 
L 3481 0 
L 2906 0 
L 2906 525 
Q 2725 213 2448 61 
Q 2172 -91 1784 -91 
Q 1150 -91 751 415 
Q 353 922 353 1747 
Q 353 2572 751 3078 
Q 1150 3584 1784 3584 
Q 2172 3584 2448 3432 
Q 2725 3281 2906 2969 
z
M 947 1747 
Q 947 1113 1208 752 
Q 1469 391 1925 391 
Q 2381 391 2643 752 
Q 2906 1113 2906 1747 
Q 2906 2381 2643 2742 
Q 2381 3103 1925 3103 
Q 1469 3103 1208 2742 
Q 947 2381 947 1747 
z
" transform="scale(0.015625)"/>
       <path id="DejaVuSans-29" d="M 513 4856 
L 1013 4856 
Q 1481 4119 1714 3412 
Q 1947 2706 1947 2009 
Q 1947 1309 1714 600 
Q 1481 -109 1013 -844 
L 513 -844 
Q 928 -128 1133 580 
Q 1338 1288 1338 2009 
Q 1338 2731 1133 3434 
Q 928 4138 513 4856 
z
" transform="scale(0.015625)"/>
      </defs>
      <use xlink:href="#DejaVuSans-54"/>
      <use xlink:href="#DejaVuSans-69" transform="translate(57.958984 0)"/>
      <use xlink:href="#DejaVuSans-6d" transform="translate(85.742188 0)"/>
      <use xlink:href="#DejaVuSans-65" transform="translate(183.154297 0)"/>
      <use xlink:href="#DejaVuSans-20" transform="translate(244.677734 0)"/>
      <use xlink:href="#DejaVuSans-28" transform="translate(276.464844 0)"/>
      <use xlink:href="#DejaVuSans-73" transform="translate(315.478516 0)"/>
      <use xlink:href="#DejaVuSans-65" transform="translate(367.578125 0)"/>
      <use xlink:href="#DejaVuSans-63" transform="translate(429.101562 0)"/>
      <use xlink:href="#DejaVuSans-6f" transform="translate(484.082031 0)"/>
      <use xlink:href="#DejaVuSans-6e" transform="translate(545.263672 0)"/>
      <use xlink:href="#DejaVuSans-64" transform="translate(608.642578 0)"/>
      <use xlink:href="#DejaVuSans-73" transform="translate(672.119141 0)"/>
      <use xlink:href="#DejaVuSans-29" transform="translate(724.21875 0)"/>
     </g>
    </g>
   </g>
   <g id="matplotlib.axis_2">
    <g id="ytick_1">
     <g id="line2d_13">
      <path d="M 54 251.174301 
L 388.8 251.174301 
" clip-path="url(#p1f7915bfa5)" style="fill: none; stroke: #b0b0b0; stroke-width: 0.8; stroke-linecap: square"/>
     </g>
     <g id="line2d_14">
      <defs>
       <path id="mb1e7dac914" d="M 0 0 
L -3.5 0 
" style="stroke: #000000; stroke-width: 0.8"/>
      </defs>
      <g>
       <use xlink:href="#mb1e7dac914" x="54" y="251.174301" style="stroke: #000000; stroke-width: 0.8"/>
      </g>
     </g>
     <g id="text_8">
      <!-- −100 -->
      <g transform="translate(19.532812 254.97352) scale(0.1 -0.1)">
       <defs>
        <path id="DejaVuSans-2212" d="M 678 2272 
L 4684 2272 
L 4684 1741 
L 678 1741 
L 678 2272 
z
" transform="scale(0.015625)"/>
       </defs>
       <use xlink:href="#DejaVuSans-2212"/>
       <use xlink:href="#DejaVuSans-31" transform="translate(83.789062 0)"/>
       <use xlink:href="#DejaVuSans-30" transform="translate(147.412109 0)"/>
       <use xlink:href="#DejaVuSans-30" transform="translate(211.035156 0)"/>
      </g>
     </g>
    </g>
    <g id="ytick_2">
     <g id="line2d_15">
      <path d="M 54 206.106757 
L 388.8 206.106757 
" clip-path="url(#p1f7915bfa5)" style="fill: none; stroke: #b0b0b0; stroke-width: 0.8; stroke-linecap: square"/>
     </g>
     <g id="line2d_16">
      <g>
       <use xlink:href="#mb1e7dac914" x="54" y="206.106757" style="stroke: #000000; stroke-width: 0.8"/>
      </g>
     </g>
     <g id="text_9">
      <!-- 0 -->
      <g transform="translate(40.6375 209.905975) scale(0.1 -0.1)">
       <use xlink:href="#DejaVuSans-30"/>
      </g>
     </g>
    </g>
    <g id="ytick_3">
     <g id="line2d_17">
      <path d="M 54 161.039213 
L 388.8 161.039213 
" clip-path="url(#p1f7915bfa5)" style="fill: none; stroke: #b0b0b0; stroke-width: 0.8; stroke-linecap: square"/>
     </g>
     <g id="line2d_18">
      <g>
       <use xlink:href="#mb1e7dac914" x="54" y="161.039213" style="stroke: #000000; stroke-width: 0.8"/>
      </g>
     </g>
     <g id="text_10">
      <!-- 100 -->
      <g transform="translate(27.9125 164.838431) scale(0.1 -0.1)">
       <use xlink:href="#DejaVuSans-31"/>
       <use xlink:href="#DejaVuSans-30" transform="translate(63.623047 0)"/>
       <use xlink:href="#DejaVuSans-30" transform="translate(127.246094 0)"/>
      </g>
     </g>
    </g>
    <g id="ytick_4">
     <g id="line2d_19">
      <path d="M 54 115.971668 
L 388.8 115.971668 
" clip-path="url(#p1f7915bfa5)" style="fill: none; stroke: #b0b0b0; stroke-width: 0.8; stroke-linecap: square"/>
     </g>
     <g id="line2d_20">
      <g>
       <use xlink:href="#mb1e7dac914" x="54" y="115.971668" style="stroke: #000000; stroke-width: 0.8"/>
      </g>
     </g>
     <g id="text_11">
      <!-- 200 -->
      <g transform="translate(27.9125 119.770887) scale(0.1 -0.1)">
       <use xlink:href="#DejaVuSans-32"/>
       <use xlink:href="#DejaVuSans-30" transform="translate(63.623047 0)"/>
       <use xlink:href="#DejaVuSans-30" transform="translate(127.246094 0)"/>
      </g>
     </g>
    </g>
    <g id="ytick_5">
     <g id="line2d_21">
      <path d="M 54 70.904124 
L 388.8 70.904124 
" clip-path="url(#p1f7915bfa5)" style="fill: none; stroke: #b0b0b0; stroke-width: 0.8; stroke-linecap: square"/>
     </g>
     <g id="line2d_22">
      <g>
       <use xlink:href="#mb1e7dac914" x="54" y="70.904124" style="stroke: #000000; stroke-width: 0.8"/>
      </g>
     </g>
     <g id="text_12">
      <!-- 300 -->
      <g transform="translate(27.9125 74.703343) scale(0.1 -0.1)">
       <use xlink:href="#DejaVuSans-33"/>
       <use xlink:href="#DejaVuSans-30" transform="translate(63.623047 0)"/>
       <use xlink:href="#DejaVuSans-30" transform="translate(127.246094 0)"/>
      </g>
     </g>
    </g>
    <g id="text_13">
     <!-- Angle (degrees) -->
     <g transform="translate(13.453125 185.285313) rotate(-90) scale(0.1 -0.1)">
      <defs>
       <path id="DejaVuSans-41" d="M 2188 4044 
L 1331 1722 
L 3047 1722 
L 2188 4044 
z
M 1831 4666 
L 2547 4666 
L 4325 0 
L 3669 0 
L 3244 1197 
L 1141 1197 
L 716 0 
L 50 0 
L 1831 4666 
z
" transform="scale(0.015625)"/>
       <path id="DejaVuSans-67" d="M 2906 1791 
Q 2906 2416 2648 2759 
Q 2391 3103 1925 3103 
Q 1463 3103 1205 2759 
Q 947 2416 947 1791 
Q 947 1169 1205 825 
Q 1463 481 1925 481 
Q 2391 481 2648 825 
Q 2906 1169 2906 1791 
z
M 3481 434 
Q 3481 -459 3084 -895 
Q 2688 -1331 1869 -1331 
Q 1566 -1331 1297 -1286 
Q 1028 -1241 775 -1147 
L 775 -588 
Q 1028 -725 1275 -790 
Q 1522 -856 1778 -856 
Q 2344 -856 2625 -561 
Q 2906 -266 2906 331 
L 2906 616 
Q 2728 306 2450 153 
Q 2172 0 1784 0 
Q 1141 0 747 490 
Q 353 981 353 1791 
Q 353 2603 747 3093 
Q 1141 3584 1784 3584 
Q 2172 3584 2450 3431 
Q 2728 3278 2906 2969 
L 2906 3500 
L 3481 3500 
L 3481 434 
z
" transform="scale(0.015625)"/>
       <path id="DejaVuSans-6c" d="M 603 4863 
L 1178 4863 
L 1178 0 
L 603 0 
L 603 4863 
z
" transform="scale(0.015625)"/>
       <path id="DejaVuSans-72" d="M 2631 2963 
Q 2534 3019 2420 3045 
Q 2306 3072 2169 3072 
Q 1681 3072 1420 2755 
Q 1159 2438 1159 1844 
L 1159 0 
L 581 0 
L 581 3500 
L 1159 3500 
L 1159 2956 
Q 1341 3275 1631 3429 
Q 1922 3584 2338 3584 
Q 2397 3584 2469 3576 
Q 2541 3569 2628 3553 
L 2631 2963 
z
" transform="scale(0.015625)"/>
      </defs>
      <use xlink:href="#DejaVuSans-41"/>
      <use xlink:href="#DejaVuSans-6e" transform="translate(68.408203 0)"/>
      <use xlink:href="#DejaVuSans-67" transform="translate(131.787109 0)"/>
      <use xlink:href="#DejaVuSans-6c" transform="translate(195.263672 0)"/>
      <use xlink:href="#DejaVuSans-65" transform="translate(223.046875 0)"/>
      <use xlink:href="#DejaVuSans-20" transform="translate(284.570312 0)"/>
      <use xlink:href="#DejaVuSans-28" transform="translate(316.357422 0)"/>
      <use xlink:href="#DejaVuSans-64" transform="translate(355.371094 0)"/>
      <use xlink:href="#DejaVuSans-65" transform="translate(418.847656 0)"/>
      <use xlink:href="#DejaVuSans-67" transform="translate(480.371094 0)"/>
      <use xlink:href="#DejaVuSans-72" transform="translate(543.847656 0)"/>
      <use xlink:href="#DejaVuSans-65" transform="translate(582.710938 0)"/>
      <use xlink:href="#DejaVuSans-65" transform="translate(644.234375 0)"/>
      <use xlink:href="#DejaVuSans-73" transform="translate(705.757812 0)"/>
      <use xlink:href="#DejaVuSans-29" transform="translate(757.857422 0)"/>
     </g>
    </g>
   </g>
   <g id="line2d_23">
    <path d="M 69.218182 228.873897 
L 70.179211 228.589412 
L 71.14024 227.078263 
L 72.044739 226.380779 
L 73.005768 224.864085 
L 73.910266 224.864085 
L 74.871295 225.599455 
L 75.832325 227.16415 
L 76.736823 227.994111 
L 79.56338 227.994111 
L 81.485438 226.381468 
L 82.389937 224.864085 
L 83.350966 224.172933 
L 86.177523 226.381468 
L 87.138552 226.381468 
L 88.04305 227.118813 
L 89.004079 227.118813 
L 89.965109 224.291016 
L 90.869607 223.086651 
L 91.830636 223.805225 
L 93.696164 226.380051 
L 94.657193 226.380779 
L 96.522721 227.814105 
L 97.48375 227.814105 
L 99.349277 225.022034 
L 100.310307 224.291016 
L 102.175834 224.492492 
L 103.136863 225.089027 
L 106.92445 225.089027 
L 107.828948 223.805225 
L 108.789977 223.244829 
L 109.694475 221.51755 
L 111.616534 221.51755 
L 112.577563 222.011741 
L 114.443091 222.011741 
L 115.40412 221.281522 
L 116.308618 220.798483 
L 117.269647 218.852739 
L 119.135175 218.852739 
L 120.096204 220.052829 
L 121.961732 220.052829 
L 122.922761 218.481193 
L 123.940321 217.264841 
L 124.788289 217.264841 
L 125.749318 218.070995 
L 126.653816 218.070995 
L 127.614845 218.481193 
L 128.575875 217.655398 
L 129.480373 216.43476 
L 130.441402 216.43476 
L 131.402431 217.264841 
L 133.267959 217.264841 
L 135.190018 215.581467 
L 139.995164 215.581467 
L 141.747629 213.809318 
L 142.708659 213.809318 
L 143.669688 215.024062 
L 144.574186 215.024062 
L 145.535215 213.809318 
L 146.439714 213.809318 
L 147.400743 212.893143 
L 148.361772 213.809318 
L 149.322802 212.893143 
L 151.188329 212.893143 
L 152.20589 211.959124 
L 158.70697 211.959124 
L 159.667999 211.200651 
L 160.572498 211.009248 
L 161.533527 211.009248 
L 163.455586 212.893143 
L 164.360084 214.098843 
L 165.321113 214.098843 
L 166.282142 215.024062 
L 167.186641 214.098843 
L 168.14767 213.430599 
L 169.108699 212.428882 
L 170.013197 212.428882 
L 170.974227 211.200651 
L 172.896285 211.200651 
L 173.800783 210.045742 
L 174.761813 210.045742 
L 176.62734 208.166804 
L 179.453897 208.252359 
L 181.319425 206.106757 
L 182.280454 207.181414 
L 185.107011 207.228135 
L 188.894597 207.228135 
L 189.799095 208.345295 
L 191.721154 208.446609 
L 194.54771 204.817265 
L 197.374267 204.878625 
L 198.278765 204.934422 
L 199.239795 203.766904 
L 202.066351 203.656029 
L 203.027381 202.444355 
L 203.931879 202.263706 
L 204.892908 203.534176 
L 205.853938 203.534176 
L 206.758436 202.263706 
L 210.546022 202.263706 
L 211.507051 202.064491 
L 212.411549 202.064491 
L 213.372579 201.843717 
L 214.333608 201.843717 
L 215.238106 201.597723 
L 216.199135 201.597723 
L 217.160165 201.321976 
L 218.064663 201.321976 
L 219.025692 201.010805 
L 219.986722 201.010805 
L 220.89122 200.657024 
L 223.717777 200.657024 
L 224.678806 202.443446 
L 226.544333 202.443446 
L 227.505363 202.16575 
L 235.024004 202.16575 
L 235.985033 201.842941 
L 236.946062 203.960214 
L 237.850561 203.960214 
L 238.81159 201.842941 
L 239.716088 203.960214 
L 241.638147 203.960214 
L 242.599176 203.766042 
L 244.464703 203.766042 
L 245.425733 206.106757 
L 249.156788 206.106757 
L 250.117817 208.447471 
L 252.039876 208.447471 
L 252.944374 208.68012 
L 254.809901 208.68012 
L 255.770931 208.447471 
L 257.636458 208.447471 
L 258.597488 210.75033 
L 259.558517 211.203351 
L 260.463015 211.203351 
L 261.424044 214.414263 
L 262.385074 215.93114 
L 263.289572 215.93114 
L 264.250601 216.905196 
L 265.21163 216.905196 
L 266.116129 219.199913 
L 268.942685 219.199913 
L 269.903715 216.905196 
L 271.769242 216.905196 
L 272.730272 215.93114 
L 274.595799 211.203351 
L 275.556828 206.106757 
L 276.517858 203.766042 
L 277.422356 199.232485 
L 278.383385 197.799774 
L 279.344414 194.13624 
L 280.248913 192.472846 
L 281.209942 192.472846 
L 282.170971 191.864384 
L 283.075469 191.864384 
L 284.036499 190.925601 
L 284.997528 191.474516 
L 285.902026 190.338246 
L 287.824085 194.13572 
L 288.728583 201.010162 
L 289.689612 206.106757 
L 290.650642 216.905196 
L 291.55514 224.868499 
L 292.516169 227.743233 
L 293.477198 231.029262 
L 294.381697 231.029262 
L 295.342726 231.482615 
L 296.303755 233.91163 
L 297.208253 234.693789 
L 298.169283 234.693789 
L 299.130312 233.260429 
L 300.091341 233.260429 
L 300.99584 231.912449 
L 302.861367 231.912449 
L 304.783426 229.468232 
L 305.687924 229.468232 
L 307.609982 227.416487 
L 309.47551 227.416487 
L 310.380008 228.366405 
L 311.341037 228.366405 
L 312.302067 227.339587 
L 315.128624 227.339587 
L 316.089653 226.383297 
L 317.95518 226.383297 
L 318.859679 225.492873 
L 319.820708 225.492873 
L 321.686235 227.273171 
L 322.647265 227.273171 
L 323.608294 229.045093 
L 324.512792 229.045093 
L 325.473821 230.047766 
L 326.434851 229.241239 
L 327.339349 228.224786 
L 328.300378 228.101851 
L 329.261408 227.215206 
L 330.165906 225.549658 
L 332.087964 225.549658 
L 332.992463 224.663641 
L 334.914521 224.663641 
L 336.780049 223.170719 
L 337.741078 224.040521 
L 338.702107 223.357154 
L 339.606605 223.357154 
L 340.567635 224.040521 
L 341.528664 223.170719 
L 342.433162 224.040521 
L 343.394192 224.040521 
L 344.355221 223.170719 
L 349.047305 223.170719 
L 352.834891 224.770162 
L 353.739389 223.891045 
L 354.700419 224.770162 
L 358.488005 224.770162 
L 360.353532 226.382117 
L 361.314562 227.994111 
L 362.275591 229.045093 
L 364.141118 228.101851 
L 365.045617 228.873897 
L 366.006646 227.215206 
L 366.967675 227.215206 
L 367.872173 223.170719 
L 370.69873 225.549658 
L 371.65976 224.663641 
L 373.581818 224.770162 
L 373.581818 224.770162 
" clip-path="url(#p1f7915bfa5)" style="fill: none; stroke: #1f77b4; stroke-width: 1.5; stroke-linecap: square"/>
   </g>
   <g id="line2d_24">
    <path d="M 69.218182 245.675096 
L 71.14024 245.488118 
L 78.658882 245.64586 
L 83.350966 245.548177 
L 85.216493 245.551813 
L 88.04305 245.551813 
L 89.965109 245.484678 
L 91.830636 245.386612 
L 93.696164 245.45669 
L 95.618222 245.551813 
L 102.175834 245.357621 
L 105.96342 245.39138 
L 158.70697 245.465015 
L 160.572498 245.474335 
L 180.414926 245.584987 
L 191.721154 245.671974 
L 195.452209 245.76507 
L 199.239795 245.671974 
L 210.546022 245.756116 
L 215.238106 245.889564 
L 219.986722 245.978149 
L 222.813278 246.02228 
L 241.638147 246.124862 
L 244.464703 246.169759 
L 277.422356 246.1537 
L 282.170971 245.979637 
L 284.997528 246.079948 
L 290.650642 246.223686 
L 293.477198 245.954986 
L 305.687924 245.865172 
L 308.514481 245.870252 
L 317.95518 245.775299 
L 321.686235 245.742887 
L 336.780049 245.639912 
L 340.567635 245.611651 
L 345.259719 245.639912 
L 373.581818 245.64586 
L 373.581818 245.64586 
" clip-path="url(#p1f7915bfa5)" style="fill: none; stroke: #ff7f0e; stroke-width: 1.5; stroke-linecap: square"/>
   </g>
   <g id="line2d_25">
    <path d="M 69.218182 206.106757 
L 70.179211 206.073172 
L 71.14024 207.132151 
L 72.044739 207.559937 
L 73.005768 208.582305 
L 73.910266 208.041494 
L 74.871295 207.036349 
L 75.832325 204.975911 
L 76.736823 203.695943 
L 77.697852 203.470605 
L 79.56338 202.569255 
L 80.524409 203.173209 
L 81.485438 203.549614 
L 82.389937 204.661429 
L 83.350966 205.171681 
L 85.216493 202.980001 
L 86.177523 202.062385 
L 87.138552 201.701845 
L 88.04305 200.648358 
L 89.004079 200.423021 
L 89.965109 202.753737 
L 90.869607 203.370886 
L 91.830636 202.290906 
L 93.696164 198.320363 
L 94.657193 197.96055 
L 96.522721 195.175238 
L 97.48375 194.859765 
L 99.349277 196.388489 
L 100.310307 196.804821 
L 102.175834 195.24825 
L 103.136863 194.291922 
L 104.097893 193.525774 
L 105.002391 193.165233 
L 106.92445 191.452667 
L 107.828948 192.285912 
L 108.789977 191.989315 
L 109.694475 192.814811 
L 110.712036 192.364136 
L 111.616534 191.462785 
L 112.577563 190.158047 
L 113.482061 189.707371 
L 114.443091 188.896155 
L 115.40412 188.816103 
L 116.308618 188.892905 
L 117.269647 190.073916 
L 118.174146 189.307768 
L 119.135175 188.947227 
L 120.096204 187.025625 
L 121.057234 186.349612 
L 121.961732 185.989071 
L 122.922761 186.886661 
L 123.940321 187.427511 
L 124.788289 187.112039 
L 125.749318 185.673915 
L 126.653816 185.358442 
L 127.614845 184.317811 
L 128.575875 184.513644 
L 129.480373 185.419359 
L 130.441402 184.743346 
L 131.402431 183.191162 
L 132.363461 182.830622 
L 133.267959 182.109541 
L 134.228988 182.174496 
L 135.190018 182.623204 
L 137.055545 181.090907 
L 138.016574 180.730367 
L 138.921073 179.964219 
L 139.995164 179.558611 
L 141.747629 179.845577 
L 142.708659 179.485036 
L 143.669688 177.548543 
L 144.574186 176.827462 
L 145.535215 177.682335 
L 146.439714 177.006322 
L 147.400743 177.202439 
L 148.361772 175.969768 
L 149.322802 176.165885 
L 150.2273 175.53494 
L 151.188329 175.219467 
L 152.20589 175.523563 
L 153.053857 174.892617 
L 154.014886 174.577144 
L 154.975915 173.991266 
L 155.880413 173.720861 
L 157.802472 172.594172 
L 158.70697 172.323767 
L 159.667999 172.587717 
L 161.533527 171.967707 
L 164.360084 167.433197 
L 165.321113 166.802251 
L 166.282142 165.154968 
L 167.186641 165.72063 
L 168.14767 165.623985 
L 169.108699 165.860498 
L 170.013197 165.45489 
L 170.974227 165.872653 
L 171.878725 165.01637 
L 172.896285 164.610762 
L 173.800783 164.910213 
L 174.761813 164.05393 
L 175.666311 164.506531 
L 176.62734 164.673101 
L 177.58837 163.861885 
L 178.492868 163.41121 
L 179.453897 162.514518 
L 180.414926 162.77519 
L 181.319425 163.445184 
L 182.280454 161.603434 
L 183.241483 161.196213 
L 185.107011 159.618849 
L 186.06804 159.258308 
L 187.933567 157.545742 
L 188.894597 157.095066 
L 189.799095 154.985515 
L 190.760124 153.948962 
L 191.721154 153.306916 
L 192.625652 153.292853 
L 193.586681 153.395122 
L 194.54771 154.099522 
L 196.413238 151.874959 
L 197.374267 151.334148 
L 198.278765 150.19677 
L 199.239795 150.328599 
L 200.200824 149.832856 
L 201.105322 148.796303 
L 202.066351 147.915613 
L 203.027381 148.632371 
L 203.931879 147.821415 
L 204.892908 145.60374 
L 205.853938 145.107997 
L 206.758436 145.432836 
L 207.719465 144.937093 
L 209.584993 143.044256 
L 210.546022 142.548513 
L 211.507051 141.846259 
L 212.411549 140.944908 
L 213.372579 140.714888 
L 214.333608 139.858605 
L 215.238106 139.293265 
L 217.160165 138.307003 
L 218.064663 137.495787 
L 219.025692 137.4463 
L 219.986722 136.635084 
L 220.89122 136.222599 
L 222.813278 135.095911 
L 223.717777 134.329762 
L 224.678806 132.182249 
L 225.639835 131.461168 
L 227.505363 130.702232 
L 228.466392 129.981152 
L 229.37089 129.620611 
L 231.292949 128.223517 
L 232.253978 127.862977 
L 234.119506 126.375748 
L 235.985033 125.571789 
L 236.946062 122.732964 
L 237.850561 122.372424 
L 238.81159 123.72402 
L 239.716088 120.885195 
L 240.677117 120.164114 
L 241.638147 119.803574 
L 242.599176 119.321693 
L 243.503674 118.600612 
L 244.464703 118.285139 
L 245.425733 115.222912 
L 246.330231 114.546898 
L 247.29126 114.231426 
L 248.25229 113.555412 
L 249.156788 113.194872 
L 250.117817 110.177712 
L 251.078846 109.456631 
L 252.039876 109.141159 
L 252.944374 108.187468 
L 253.848872 107.466388 
L 255.770931 106.572308 
L 256.675429 105.896295 
L 257.636458 105.535755 
L 258.597488 102.511382 
L 259.558517 101.382427 
L 260.463015 101.021887 
L 261.424044 97.134686 
L 262.385074 94.941285 
L 263.289572 94.625812 
L 264.250601 92.9759 
L 265.21163 92.299887 
L 266.116129 89.689344 
L 267.077158 89.058398 
L 268.038187 88.742925 
L 268.942685 88.11198 
L 269.903715 89.731037 
L 270.864744 89.100091 
L 271.769242 88.739551 
L 272.730272 89.037436 
L 274.595799 92.684391 
L 275.556828 97.015624 
L 276.517858 98.99623 
L 277.422356 102.809573 
L 278.383385 103.837266 
L 279.344414 106.780663 
L 280.248913 107.723447 
L 281.209942 107.362907 
L 282.170971 107.296143 
L 283.075469 106.62013 
L 284.036499 107.243126 
L 284.997528 106.062518 
L 285.902026 106.567566 
L 286.863056 104.436429 
L 287.824085 101.822887 
L 288.728583 94.361387 
L 289.689612 88.993601 
L 290.650642 77.652935 
L 291.55514 69.147406 
L 292.516169 66.001559 
L 293.477198 62.218725 
L 294.381697 61.948319 
L 295.342726 61.00005 
L 296.303755 58.030421 
L 297.208253 56.707176 
L 298.169283 56.391703 
L 299.130312 57.238634 
L 300.091341 56.923161 
L 300.99584 57.639645 
L 301.956869 57.008699 
L 302.861367 56.648159 
L 304.783426 57.739248 
L 305.687924 57.378708 
L 306.648953 57.803971 
L 307.609982 58.078348 
L 308.514481 57.717807 
L 309.47551 57.041794 
L 310.380008 55.460459 
L 311.341037 55.144986 
L 312.302067 55.540308 
L 313.206565 54.95443 
L 314.167594 54.684025 
L 315.128624 54.143214 
L 316.089653 54.558143 
L 316.994151 54.332805 
L 317.95518 53.837062 
L 318.859679 54.231193 
L 319.820708 54.005855 
L 321.686235 51.414341 
L 322.647265 51.234071 
L 323.608294 49.056619 
L 324.512792 48.876349 
L 325.473821 47.513765 
L 326.434851 48.140493 
L 327.339349 48.976087 
L 328.300378 48.602138 
L 329.261408 49.172681 
L 330.165906 50.703026 
L 332.087964 50.117148 
L 332.992463 50.868591 
L 333.953492 50.553118 
L 334.914521 50.417916 
L 336.780049 51.368926 
L 337.741078 50.228011 
L 338.702107 50.775585 
L 339.606605 50.50518 
L 340.567635 49.597066 
L 341.528664 50.332373 
L 342.433162 49.281593 
L 343.394192 49.101323 
L 344.355221 49.926765 
L 345.259719 49.791562 
L 349.047305 49.566225 
L 352.834891 48.011731 
L 353.739389 48.981652 
L 354.700419 48.146933 
L 358.488005 48.507474 
L 360.353532 47.07575 
L 361.314562 45.553931 
L 362.275591 44.64 
L 364.141118 45.717815 
L 365.045617 45.035354 
L 366.006646 46.739034 
L 366.967675 46.784101 
L 367.872173 50.873183 
L 370.69873 48.629919 
L 371.65976 49.561632 
L 373.581818 49.49896 
L 373.581818 49.49896 
" clip-path="url(#p1f7915bfa5)" style="fill: none; stroke: #2ca02c; stroke-width: 1.5; stroke-linecap: square"/>
   </g>
   <g id="patch_3">
    <path d="M 54 256.32 
L 54 34.56 
" style="fill: none; stroke: #000000; stroke-width: 0.8; stroke-linejoin: miter; stroke-linecap: square"/>
   </g>
   <g id="patch_4">
    <path d="M 388.8 256.32 
L 388.8 34.56 
" style="fill: none; stroke: #000000; stroke-width: 0.8; stroke-linejoin: miter; stroke-linecap: square"/>
   </g>
   <g id="patch_5">
    <path d="M 54 256.32 
L 388.8 256.32 
" style="fill: none; stroke: #000000; stroke-width: 0.8; stroke-linejoin: miter; stroke-linecap: square"/>
   </g>
   <g id="patch_6">
    <path d="M 54 34.56 
L 388.8 34.56 
" style="fill: none; stroke: #000000; stroke-width: 0.8; stroke-linejoin: miter; stroke-linecap: square"/>
   </g>
   <g id="text_14">
    <!-- Device Orientation (Corrected) — Parallel to ground -->
    <g transform="translate(66.375 28.56) scale(0.12 -0.12)">
     <defs>
      <path id="DejaVuSans-44" d="M 1259 4147 
L 1259 519 
L 2022 519 
Q 2988 519 3436 956 
Q 3884 1394 3884 2338 
Q 3884 3275 3436 3711 
Q 2988 4147 2022 4147 
L 1259 4147 
z
M 628 4666 
L 1925 4666 
Q 3281 4666 3915 4102 
Q 4550 3538 4550 2338 
Q 4550 1131 3912 565 
Q 3275 0 1925 0 
L 628 0 
L 628 4666 
z
" transform="scale(0.015625)"/>
      <path id="DejaVuSans-76" d="M 191 3500 
L 800 3500 
L 1894 563 
L 2988 3500 
L 3597 3500 
L 2284 0 
L 1503 0 
L 191 3500 
z
" transform="scale(0.015625)"/>
      <path id="DejaVuSans-4f" d="M 2522 4238 
Q 1834 4238 1429 3725 
Q 1025 3213 1025 2328 
Q 1025 1447 1429 934 
Q 1834 422 2522 422 
Q 3209 422 3611 934 
Q 4013 1447 4013 2328 
Q 4013 3213 3611 3725 
Q 3209 4238 2522 4238 
z
M 2522 4750 
Q 3503 4750 4090 4092 
Q 4678 3434 4678 2328 
Q 4678 1225 4090 567 
Q 3503 -91 2522 -91 
Q 1538 -91 948 565 
Q 359 1222 359 2328 
Q 359 3434 948 4092 
Q 1538 4750 2522 4750 
z
" transform="scale(0.015625)"/>
      <path id="DejaVuSans-74" d="M 1172 4494 
L 1172 3500 
L 2356 3500 
L 2356 3053 
L 1172 3053 
L 1172 1153 
Q 1172 725 1289 603 
Q 1406 481 1766 481 
L 2356 481 
L 2356 0 
L 1766 0 
Q 1100 0 847 248 
Q 594 497 594 1153 
L 594 3053 
L 172 3053 
L 172 3500 
L 594 3500 
L 594 4494 
L 1172 4494 
z
" transform="scale(0.015625)"/>
      <path id="DejaVuSans-61" d="M 2194 1759 
Q 1497 1759 1228 1600 
Q 959 1441 959 1056 
Q 959 750 1161 570 
Q 1363 391 1709 391 
Q 2188 391 2477 730 
Q 2766 1069 2766 1631 
L 2766 1759 
L 2194 1759 
z
M 3341 1997 
L 3341 0 
L 2766 0 
L 2766 531 
Q 2569 213 2275 61 
Q 1981 -91 1556 -91 
Q 1019 -91 701 211 
Q 384 513 384 1019 
Q 384 1609 779 1909 
Q 1175 2209 1959 2209 
L 2766 2209 
L 2766 2266 
Q 2766 2663 2505 2880 
Q 2244 3097 1772 3097 
Q 1472 3097 1187 3025 
Q 903 2953 641 2809 
L 641 3341 
Q 956 3463 1253 3523 
Q 1550 3584 1831 3584 
Q 2591 3584 2966 3190 
Q 3341 2797 3341 1997 
z
" transform="scale(0.015625)"/>
      <path id="DejaVuSans-43" d="M 4122 4306 
L 4122 3641 
Q 3803 3938 3442 4084 
Q 3081 4231 2675 4231 
Q 1875 4231 1450 3742 
Q 1025 3253 1025 2328 
Q 1025 1406 1450 917 
Q 1875 428 2675 428 
Q 3081 428 3442 575 
Q 3803 722 4122 1019 
L 4122 359 
Q 3791 134 3420 21 
Q 3050 -91 2638 -91 
Q 1578 -91 968 557 
Q 359 1206 359 2328 
Q 359 3453 968 4101 
Q 1578 4750 2638 4750 
Q 3056 4750 3426 4639 
Q 3797 4528 4122 4306 
z
" transform="scale(0.015625)"/>
      <path id="DejaVuSans-2014" d="M 313 1978 
L 6088 1978 
L 6088 1528 
L 313 1528 
L 313 1978 
z
" transform="scale(0.015625)"/>
      <path id="DejaVuSans-50" d="M 1259 4147 
L 1259 2394 
L 2053 2394 
Q 2494 2394 2734 2622 
Q 2975 2850 2975 3272 
Q 2975 3691 2734 3919 
Q 2494 4147 2053 4147 
L 1259 4147 
z
M 628 4666 
L 2053 4666 
Q 2838 4666 3239 4311 
Q 3641 3956 3641 3272 
Q 3641 2581 3239 2228 
Q 2838 1875 2053 1875 
L 1259 1875 
L 1259 0 
L 628 0 
L 628 4666 
z
" transform="scale(0.015625)"/>
      <path id="DejaVuSans-75" d="M 544 1381 
L 544 3500 
L 1119 3500 
L 1119 1403 
Q 1119 906 1312 657 
Q 1506 409 1894 409 
Q 2359 409 2629 706 
Q 2900 1003 2900 1516 
L 2900 3500 
L 3475 3500 
L 3475 0 
L 2900 0 
L 2900 538 
Q 2691 219 2414 64 
Q 2138 -91 1772 -91 
Q 1169 -91 856 284 
Q 544 659 544 1381 
z
M 1991 3584 
L 1991 3584 
z
" transform="scale(0.015625)"/>
     </defs>
     <use xlink:href="#DejaVuSans-44"/>
     <use xlink:href="#DejaVuSans-65" transform="translate(77.001953 0)"/>
     <use xlink:href="#DejaVuSans-76" transform="translate(138.525391 0)"/>
     <use xlink:href="#DejaVuSans-69" transform="translate(197.705078 0)"/>
     <use xlink:href="#DejaVuSans-63" transform="translate(225.488281 0)"/>
     <use xlink:href="#DejaVuSans-65" transform="translate(280.46875 0)"/>
     <use xlink:href="#DejaVuSans-20" transform="translate(341.992188 0)"/>
     <use xlink:href="#DejaVuSans-4f" transform="translate(373.779297 0)"/>
     <use xlink:href="#DejaVuSans-72" transform="translate(452.490234 0)"/>
     <use xlink:href="#DejaVuSans-69" transform="translate(493.603516 0)"/>
     <use xlink:href="#DejaVuSans-65" transform="translate(521.386719 0)"/>
     <use xlink:href="#DejaVuSans-6e" transform="translate(582.910156 0)"/>
     <use xlink:href="#DejaVuSans-74" transform="translate(646.289062 0)"/>
     <use xlink:href="#DejaVuSans-61" transform="translate(685.498047 0)"/>
     <use xlink:href="#DejaVuSans-74" transform="translate(746.777344 0)"/>
     <use xlink:href="#DejaVuSans-69" transform="translate(785.986328 0)"/>
     <use xlink:href="#DejaVuSans-6f" transform="translate(813.769531 0)"/>
     <use xlink:href="#DejaVuSans-6e" transform="translate(874.951172 0)"/>
     <use xlink:href="#DejaVuSans-20" transform="translate(938.330078 0)"/>
     <use xlink:href="#DejaVuSans-28" transform="translate(970.117188 0)"/>
     <use xlink:href="#DejaVuSans-43" transform="translate(1009.130859 0)"/>
     <use xlink:href="#DejaVuSans-6f" transform="translate(1078.955078 0)"/>
     <use xlink:href="#DejaVuSans-72" transform="translate(1140.136719 0)"/>
     <use xlink:href="#DejaVuSans-72" transform="translate(1179.5 0)"/>
     <use xlink:href="#DejaVuSans-65" transform="translate(1218.363281 0)"/>
     <use xlink:href="#DejaVuSans-63" transform="translate(1279.886719 0)"/>
     <use xlink:href="#DejaVuSans-74" transform="translate(1334.867188 0)"/>
     <use xlink:href="#DejaVuSans-65" transform="translate(1374.076172 0)"/>
     <use xlink:href="#DejaVuSans-64" transform="translate(1435.599609 0)"/>
     <use xlink:href="#DejaVuSans-29" transform="translate(1499.076172 0)"/>
     <use xlink:href="#DejaVuSans-20" transform="translate(1538.089844 0)"/>
     <use xlink:href="#DejaVuSans-2014" transform="translate(1569.876953 0)"/>
     <use xlink:href="#DejaVuSans-20" transform="translate(1669.876953 0)"/>
     <use xlink:href="#DejaVuSans-50" transform="translate(1701.664062 0)"/>
     <use xlink:href="#DejaVuSans-61" transform="translate(1757.466797 0)"/>
     <use xlink:href="#DejaVuSans-72" transform="translate(1818.746094 0)"/>
     <use xlink:href="#DejaVuSans-61" transform="translate(1859.859375 0)"/>
     <use xlink:href="#DejaVuSans-6c" transform="translate(1921.138672 0)"/>
     <use xlink:href="#DejaVuSans-6c" transform="translate(1948.921875 0)"/>
     <use xlink:href="#DejaVuSans-65" transform="translate(1976.705078 0)"/>
     <use xlink:href="#DejaVuSans-6c" transform="translate(2038.228516 0)"/>
     <use xlink:href="#DejaVuSans-20" transform="translate(2066.011719 0)"/>
     <use xlink:href="#DejaVuSans-74" transform="translate(2097.798828 0)"/>
     <use xlink:href="#DejaVuSans-6f" transform="translate(2137.007812 0)"/>
     <use xlink:href="#DejaVuSans-20" transform="translate(2198.189453 0)"/>
     <use xlink:href="#DejaVuSans-67" transform="translate(2229.976562 0)"/>
     <use xlink:href="#DejaVuSans-72" transform="translate(2293.453125 0)"/>
     <use xlink:href="#DejaVuSans-6f" transform="translate(2332.316406 0)"/>
     <use xlink:href="#DejaVuSans-75" transform="translate(2393.498047 0)"/>
     <use xlink:href="#DejaVuSans-6e" transform="translate(2456.876953 0)"/>
     <use xlink:href="#DejaVuSans-64" transform="translate(2520.255859 0)"/>
    </g>
   </g>
   <g id="legend_1">
    <g id="patch_7">
     <path d="M 61 86.594375 
L 133.209375 86.594375 
Q 135.209375 86.594375 135.209375 84.594375 
L 135.209375 41.56 
Q 135.209375 39.56 133.209375 39.56 
L 61 39.56 
Q 59 39.56 59 41.56 
L 59 84.594375 
Q 59 86.594375 61 86.594375 
z
" style="fill: #ffffff; opacity: 0.8; stroke: #cccccc; stroke-linejoin: miter"/>
    </g>
    <g id="line2d_26">
     <path d="M 63 47.658438 
L 73 47.658438 
L 83 47.658438 
" style="fill: none; stroke: #1f77b4; stroke-width: 1.5; stroke-linecap: square"/>
    </g>
    <g id="text_15">
     <!-- Forward -->
     <g transform="translate(91 51.158438) scale(0.1 -0.1)">
      <defs>
       <path id="DejaVuSans-46" d="M 628 4666 
L 3309 4666 
L 3309 4134 
L 1259 4134 
L 1259 2759 
L 3109 2759 
L 3109 2228 
L 1259 2228 
L 1259 0 
L 628 0 
L 628 4666 
z
" transform="scale(0.015625)"/>
       <path id="DejaVuSans-77" d="M 269 3500 
L 844 3500 
L 1563 769 
L 2278 3500 
L 2956 3500 
L 3675 769 
L 4391 3500 
L 4966 3500 
L 4050 0 
L 3372 0 
L 2619 2869 
L 1863 0 
L 1184 0 
L 269 3500 
z
" transform="scale(0.015625)"/>
      </defs>
      <use xlink:href="#DejaVuSans-46"/>
      <use xlink:href="#DejaVuSans-6f" transform="translate(53.894531 0)"/>
      <use xlink:href="#DejaVuSans-72" transform="translate(115.076172 0)"/>
      <use xlink:href="#DejaVuSans-77" transform="translate(156.189453 0)"/>
      <use xlink:href="#DejaVuSans-61" transform="translate(237.976562 0)"/>
      <use xlink:href="#DejaVuSans-72" transform="translate(299.255859 0)"/>
      <use xlink:href="#DejaVuSans-64" transform="translate(338.619141 0)"/>
     </g>
    </g>
    <g id="line2d_27">
     <path d="M 63 62.336563 
L 73 62.336563 
L 83 62.336563 
" style="fill: none; stroke: #ff7f0e; stroke-width: 1.5; stroke-linecap: square"/>
    </g>
    <g id="text_16">
     <!-- Right -->
     <g transform="translate(91 65.836563) scale(0.1 -0.1)">
      <defs>
       <path id="DejaVuSans-52" d="M 2841 2188 
Q 3044 2119 3236 1894 
Q 3428 1669 3622 1275 
L 4263 0 
L 3584 0 
L 2988 1197 
Q 2756 1666 2539 1819 
Q 2322 1972 1947 1972 
L 1259 1972 
L 1259 0 
L 628 0 
L 628 4666 
L 2053 4666 
Q 2853 4666 3247 4331 
Q 3641 3997 3641 3322 
Q 3641 2881 3436 2590 
Q 3231 2300 2841 2188 
z
M 1259 4147 
L 1259 2491 
L 2053 2491 
Q 2509 2491 2742 2702 
Q 2975 2913 2975 3322 
Q 2975 3731 2742 3939 
Q 2509 4147 2053 4147 
L 1259 4147 
z
" transform="scale(0.015625)"/>
       <path id="DejaVuSans-68" d="M 3513 2113 
L 3513 0 
L 2938 0 
L 2938 2094 
Q 2938 2591 2744 2837 
Q 2550 3084 2163 3084 
Q 1697 3084 1428 2787 
Q 1159 2491 1159 1978 
L 1159 0 
L 581 0 
L 581 4863 
L 1159 4863 
L 1159 2956 
Q 1366 3272 1645 3428 
Q 1925 3584 2291 3584 
Q 2894 3584 3203 3211 
Q 3513 2838 3513 2113 
z
" transform="scale(0.015625)"/>
      </defs>
      <use xlink:href="#DejaVuSans-52"/>
      <use xlink:href="#DejaVuSans-69" transform="translate(69.482422 0)"/>
      <use xlink:href="#DejaVuSans-67" transform="translate(97.265625 0)"/>
      <use xlink:href="#DejaVuSans-68" transform="translate(160.742188 0)"/>
      <use xlink:href="#DejaVuSans-74" transform="translate(224.121094 0)"/>
     </g>
    </g>
    <g id="line2d_28">
     <path d="M 63 77.014688 
L 73 77.014688 
L 83 77.014688 
" style="fill: none; stroke: #2ca02c; stroke-width: 1.5; stroke-linecap: square"/>
    </g>
    <g id="text_17">
     <!-- Up -->
     <g transform="translate(91 80.514688) scale(0.1 -0.1)">
      <defs>
       <path id="DejaVuSans-55" d="M 556 4666 
L 1191 4666 
L 1191 1831 
Q 1191 1081 1462 751 
Q 1734 422 2344 422 
Q 2950 422 3222 751 
Q 3494 1081 3494 1831 
L 3494 4666 
L 4128 4666 
L 4128 1753 
Q 4128 841 3676 375 
Q 3225 -91 2344 -91 
Q 1459 -91 1007 375 
Q 556 841 556 1753 
L 556 4666 
z
" transform="scale(0.015625)"/>
       <path id="DejaVuSans-70" d="M 1159 525 
L 1159 -1331 
L 581 -1331 
L 581 3500 
L 1159 3500 
L 1159 2969 
Q 1341 3281 1617 3432 
Q 1894 3584 2278 3584 
Q 2916 3584 3314 3078 
Q 3713 2572 3713 1747 
Q 3713 922 3314 415 
Q 2916 -91 2278 -91 
Q 1894 -91 1617 61 
Q 1341 213 1159 525 
z
M 3116 1747 
Q 3116 2381 2855 2742 
Q 2594 3103 2138 3103 
Q 1681 3103 1420 2742 
Q 1159 2381 1159 1747 
Q 1159 1113 1420 752 
Q 1681 391 2138 391 
Q 2594 391 2855 752 
Q 3116 1113 3116 1747 
z
" transform="scale(0.015625)"/>
      </defs>
      <use xlink:href="#DejaVuSans-55"/>
      <use xlink:href="#DejaVuSans-70" transform="translate(73.193359 0)"/>
     </g>
    </g>
   </g>
  </g>
 </g>
 <defs>
  <clipPath id="p1f7915bfa5">
   <rect x="54" y="34.56" width="334.8" height="221.76"/>
  </clipPath>
 </defs>
</svg>
