<?xml version="1.0" encoding="utf-8" standalone="no"?>
<!DOCTYPE svg PUBLIC "-//W3C//DTD SVG 1.1//EN"
  "http://www.w3.org/Graphics/SVG/1.1/DTD/svg11.dtd">
<svg xmlns:xlink="http://www.w3.org/1999/xlink" width="432pt" height="288pt" viewBox="0 0 432 288" xmlns="http://www.w3.org/2000/svg" version="1.1">
 <metadata>
  <rdf:RDF xmlns:dc="http://purl.org/dc/elements/1.1/" xmlns:cc="http://creativecommons.org/ns#" xmlns:rdf="http://www.w3.org/1999/02/22-rdf-syntax-ns#">
   <cc:Work>
    <dc:type rdf:resource="http://purl.org/dc/dcmitype/StillImage"/>
    <dc:date>1980-01-01T00:00:00+00:00</dc:date>
    <dc:format>image/svg+xml</dc:format>
    <dc:creator>
     <cc:Agent>
      <dc:title>Matplotlib v3.10.5, https://matplotlib.org/</dc:title>
     </cc:Agent>
    </dc:creator>
   </cc:Work>
  </rdf:RDF>
 </metadata>
 <defs>
  <style type="text/css">*{stroke-linejoin: round; stroke-linecap: butt}</style>
 </defs>
 <g id="figure_1">
  <g id="patch_1">
   <path d="M 0 288 
L 432 288 
L 432 0 
L 0 0 
z
" style="fill: #ffffff"/>
  </g>
  <g id="axes_1">
   <g id="patch_2">
    <path d="M 54 256.32 
L 388.8 256.32 
L 388.8 34.56 
L 54 34.56 
z
" style="fill: #ffffff"/>
   </g>
   <g id="matplotlib.axis_1">
    <g id="xtick_1">
     <g id="line2d_1">
      <path d="M 69.218182 256.32 
L 69.218182 34.56 
" clip-path="url(#p261c689969)" style="fill: none; stroke: #b0b0b0; stroke-width: 0.8; stroke-linecap: square"/>
     </g>
     <g id="line2d_2">
      <defs>
       <path id="m072f0cc33e" d="M 0 0 
L 0 3.5 
" style="stroke: #000000; stroke-width: 0.8"/>
      </defs>
      <g>
       <use xlink:href="#m072f0cc33e" x="69.218182" y="256.32" style="stroke: #000000; stroke-width: 0.8"/>
      </g>
     </g>
     <g id="text_1">
      <!-- 0 -->
      <g transform="translate(66.036932 270.918437) scale(0.1 -0.1)">
       <defs>
        <path id="DejaVuSans-30" d="M 2034 4250 
Q 1547 4250 1301 3770 
Q 1056 3291 1056 2328 
Q 1056 1369 1301 889 
Q 1547 409 2034 409 
Q 2525 409 2770 889 
Q 3016 1369 3016 2328 
Q 3016 3291 2770 3770 
Q 2525 4250 2034 4250 
z
M 2034 4750 
Q 2819 4750 3233 4129 
Q 3647 3509 3647 2328 
Q 3647 1150 3233 529 
Q 2819 -91 2034 -91 
Q 1250 -91 836 529 
Q 422 1150 422 2328 
Q 422 3509 836 4129 
Q 1250 4750 2034 4750 
z
" transform="scale(0.015625)"/>
       </defs>
       <use xlink:href="#DejaVuSans-30"/>
      </g>
     </g>
    </g>
    <g id="xtick_2">
     <g id="line2d_3">
      <path d="M 118.436105 256.32 
L 118.436105 34.56 
" clip-path="url(#p261c689969)" style="fill: none; stroke: #b0b0b0; stroke-width: 0.8; stroke-linecap: square"/>
     </g>
     <g id="line2d_4">
      <g>
       <use xlink:href="#m072f0cc33e" x="118.436105" y="256.32" style="stroke: #000000; stroke-width: 0.8"/>
      </g>
     </g>
     <g id="text_2">
      <!-- 1 -->
      <g transform="translate(115.254855 270.918437) scale(0.1 -0.1)">
       <defs>
        <path id="DejaVuSans-31" d="M 794 531 
L 1825 531 
L 1825 4091 
L 703 3866 
L 703 4441 
L 1819 4666 
L 2450 4666 
L 2450 531 
L 3481 531 
L 3481 0 
L 794 0 
L 794 531 
z
" transform="scale(0.015625)"/>
       </defs>
       <use xlink:href="#DejaVuSans-31"/>
      </g>
     </g>
    </g>
    <g id="xtick_3">
     <g id="line2d_5">
      <path d="M 167.654028 256.32 
L 167.654028 34.56 
" clip-path="url(#p261c689969)" style="fill: none; stroke: #b0b0b0; stroke-width: 0.8; stroke-linecap: square"/>
     </g>
     <g id="line2d_6">
      <g>
       <use xlink:href="#m072f0cc33e" x="167.654028" y="256.32" style="stroke: #000000; stroke-width: 0.8"/>
      </g>
     </g>
     <g id="text_3">
      <!-- 2 -->
      <g transform="translate(164.472778 270.918437) scale(0.1 -0.1)">
       <defs>
        <path id="DejaVuSans-32" d="M 1228 531 
L 3431 531 
L 3431 0 
L 469 0 
L 469 531 
Q 828 903 1448 1529 
Q 2069 2156 2228 2338 
Q 2531 2678 2651 2914 
Q 2772 3150 2772 3378 
Q 2772 3750 2511 3984 
Q 2250 4219 1831 4219 
Q 1534 4219 1204 4116 
Q 875 4013 500 3803 
L 500 4441 
Q 881 4594 1212 4672 
Q 1544 4750 1819 4750 
Q 2544 4750 2975 4387 
Q 3406 4025 3406 3419 
Q 3406 3131 3298 2873 
Q 3191 2616 2906 2266 
Q 2828 2175 2409 1742 
Q 1991 1309 1228 531 
z
" transform="scale(0.015625)"/>
       </defs>
       <use xlink:href="#DejaVuSans-32"/>
      </g>
     </g>
    </g>
    <g id="xtick_4">
     <g id="line2d_7">
      <path d="M 216.871951 256.32 
L 216.871951 34.56 
" clip-path="url(#p261c689969)" style="fill: none; stroke: #b0b0b0; stroke-width: 0.8; stroke-linecap: square"/>
     </g>
     <g id="line2d_8">
      <g>
       <use xlink:href="#m072f0cc33e" x="216.871951" y="256.32" style="stroke: #000000; stroke-width: 0.8"/>
      </g>
     </g>
     <g id="text_4">
      <!-- 3 -->
      <g transform="translate(213.690701 270.918437) scale(0.1 -0.1)">
       <defs>
        <path id="DejaVuSans-33" d="M 2597 2516 
Q 3050 2419 3304 2112 
Q 3559 1806 3559 1356 
Q 3559 666 3084 287 
Q 2609 -91 1734 -91 
Q 1441 -91 1130 -33 
Q 819 25 488 141 
L 488 750 
Q 750 597 1062 519 
Q 1375 441 1716 441 
Q 2309 441 2620 675 
Q 2931 909 2931 1356 
Q 2931 1769 2642 2001 
Q 2353 2234 1838 2234 
L 1294 2234 
L 1294 2753 
L 1863 2753 
Q 2328 2753 2575 2939 
Q 2822 3125 2822 3475 
Q 2822 3834 2567 4026 
Q 2313 4219 1838 4219 
Q 1578 4219 1281 4162 
Q 984 4106 628 3988 
L 628 4550 
Q 988 4650 1302 4700 
Q 1616 4750 1894 4750 
Q 2613 4750 3031 4423 
Q 3450 4097 3450 3541 
Q 3450 3153 3228 2886 
Q 3006 2619 2597 2516 
z
" transform="scale(0.015625)"/>
       </defs>
       <use xlink:href="#DejaVuSans-33"/>
      </g>
     </g>
    </g>
    <g id="xtick_5">
     <g id="line2d_9">
      <path d="M 266.089874 256.32 
L 266.089874 34.56 
" clip-path="url(#p261c689969)" style="fill: none; stroke: #b0b0b0; stroke-width: 0.8; stroke-linecap: square"/>
     </g>
     <g id="line2d_10">
      <g>
       <use xlink:href="#m072f0cc33e" x="266.089874" y="256.32" style="stroke: #000000; stroke-width: 0.8"/>
      </g>
     </g>
     <g id="text_5">
      <!-- 4 -->
      <g transform="translate(262.908624 270.918437) scale(0.1 -0.1)">
       <defs>
        <path id="DejaVuSans-34" d="M 2419 4116 
L 825 1625 
L 2419 1625 
L 2419 4116 
z
M 2253 4666 
L 3047 4666 
L 3047 1625 
L 3713 1625 
L 3713 1100 
L 3047 1100 
L 3047 0 
L 2419 0 
L 2419 1100 
L 313 1100 
L 313 1709 
L 2253 4666 
z
" transform="scale(0.015625)"/>
       </defs>
       <use xlink:href="#DejaVuSans-34"/>
      </g>
     </g>
    </g>
    <g id="xtick_6">
     <g id="line2d_11">
      <path d="M 315.307797 256.32 
L 315.307797 34.56 
" clip-path="url(#p261c689969)" style="fill: none; stroke: #b0b0b0; stroke-width: 0.8; stroke-linecap: square"/>
     </g>
     <g id="line2d_12">
      <g>
       <use xlink:href="#m072f0cc33e" x="315.307797" y="256.32" style="stroke: #000000; stroke-width: 0.8"/>
      </g>
     </g>
     <g id="text_6">
      <!-- 5 -->
      <g transform="translate(312.126547 270.918437) scale(0.1 -0.1)">
       <defs>
        <path id="DejaVuSans-35" d="M 691 4666 
L 3169 4666 
L 3169 4134 
L 1269 4134 
L 1269 2991 
Q 1406 3038 1543 3061 
Q 1681 3084 1819 3084 
Q 2600 3084 3056 2656 
Q 3513 2228 3513 1497 
Q 3513 744 3044 326 
Q 2575 -91 1722 -91 
Q 1428 -91 1123 -41 
Q 819 9 494 109 
L 494 744 
Q 775 591 1075 516 
Q 1375 441 1709 441 
Q 2250 441 2565 725 
Q 2881 1009 2881 1497 
Q 2881 1984 2565 2268 
Q 2250 2553 1709 2553 
Q 1456 2553 1204 2497 
Q 953 2441 691 2322 
L 691 4666 
z
" transform="scale(0.015625)"/>
       </defs>
       <use xlink:href="#DejaVuSans-35"/>
      </g>
     </g>
    </g>
    <g id="xtick_7">
     <g id="line2d_13">
      <path d="M 364.52572 256.32 
L 364.52572 34.56 
" clip-path="url(#p261c689969)" style="fill: none; stroke: #b0b0b0; stroke-width: 0.8; stroke-linecap: square"/>
     </g>
     <g id="line2d_14">
      <g>
       <use xlink:href="#m072f0cc33e" x="364.52572" y="256.32" style="stroke: #000000; stroke-width: 0.8"/>
      </g>
     </g>
     <g id="text_7">
      <!-- 6 -->
      <g transform="translate(361.34447 270.918437) scale(0.1 -0.1)">
       <defs>
        <path id="DejaVuSans-36" d="M 2113 2584 
Q 1688 2584 1439 2293 
Q 1191 2003 1191 1497 
Q 1191 994 1439 701 
Q 1688 409 2113 409 
Q 2538 409 2786 701 
Q 3034 994 3034 1497 
Q 3034 2003 2786 2293 
Q 2538 2584 2113 2584 
z
M 3366 4563 
L 3366 3988 
Q 3128 4100 2886 4159 
Q 2644 4219 2406 4219 
Q 1781 4219 1451 3797 
Q 1122 3375 1075 2522 
Q 1259 2794 1537 2939 
Q 1816 3084 2150 3084 
Q 2853 3084 3261 2657 
Q 3669 2231 3669 1497 
Q 3669 778 3244 343 
Q 2819 -91 2113 -91 
Q 1303 -91 875 529 
Q 447 1150 447 2328 
Q 447 3434 972 4092 
Q 1497 4750 2381 4750 
Q 2619 4750 2861 4703 
Q 3103 4656 3366 4563 
z
" transform="scale(0.015625)"/>
       </defs>
       <use xlink:href="#DejaVuSans-36"/>
      </g>
     </g>
    </g>
    <g id="text_8">
     <!-- Time (seconds) -->
     <g transform="translate(183.238281 284.596563) scale(0.1 -0.1)">
      <defs>
       <path id="DejaVuSans-54" d="M -19 4666 
L 3928 4666 
L 3928 4134 
L 2272 4134 
L 2272 0 
L 1638 0 
L 1638 4134 
L -19 4134 
L -19 4666 
z
" transform="scale(0.015625)"/>
       <path id="DejaVuSans-69" d="M 603 3500 
L 1178 3500 
L 1178 0 
L 603 0 
L 603 3500 
z
M 603 4863 
L 1178 4863 
L 1178 4134 
L 603 4134 
L 603 4863 
z
" transform="scale(0.015625)"/>
       <path id="DejaVuSans-6d" d="M 3328 2828 
Q 3544 3216 3844 3400 
Q 4144 3584 4550 3584 
Q 5097 3584 5394 3201 
Q 5691 2819 5691 2113 
L 5691 0 
L 5113 0 
L 5113 2094 
Q 5113 2597 4934 2840 
Q 4756 3084 4391 3084 
Q 3944 3084 3684 2787 
Q 3425 2491 3425 1978 
L 3425 0 
L 2847 0 
L 2847 2094 
Q 2847 2600 2669 2842 
Q 2491 3084 2119 3084 
Q 1678 3084 1418 2786 
Q 1159 2488 1159 1978 
L 1159 0 
L 581 0 
L 581 3500 
L 1159 3500 
L 1159 2956 
Q 1356 3278 1631 3431 
Q 1906 3584 2284 3584 
Q 2666 3584 2933 3390 
Q 3200 3197 3328 2828 
z
" transform="scale(0.015625)"/>
       <path id="DejaVuSans-65" d="M 3597 1894 
L 3597 1613 
L 953 1613 
Q 991 1019 1311 708 
Q 1631 397 2203 397 
Q 2534 397 2845 478 
Q 3156 559 3463 722 
L 3463 178 
Q 3153 47 2828 -22 
Q 2503 -91 2169 -91 
Q 1331 -91 842 396 
Q 353 884 353 1716 
Q 353 2575 817 3079 
Q 1281 3584 2069 3584 
Q 2775 3584 3186 3129 
Q 3597 2675 3597 1894 
z
M 3022 2063 
Q 3016 2534 2758 2815 
Q 2500 3097 2075 3097 
Q 1594 3097 1305 2825 
Q 1016 2553 972 2059 
L 3022 2063 
z
" transform="scale(0.015625)"/>
       <path id="DejaVuSans-20" transform="scale(0.015625)"/>
       <path id="DejaVuSans-28" d="M 1984 4856 
Q 1566 4138 1362 3434 
Q 1159 2731 1159 2009 
Q 1159 1288 1364 580 
Q 1569 -128 1984 -844 
L 1484 -844 
Q 1016 -109 783 600 
Q 550 1309 550 2009 
Q 550 2706 781 3412 
Q 1013 4119 1484 4856 
L 1984 4856 
z
" transform="scale(0.015625)"/>
       <path id="DejaVuSans-73" d="M 2834 3397 
L 2834 2853 
Q 2591 2978 2328 3040 
Q 2066 3103 1784 3103 
Q 1356 3103 1142 2972 
Q 928 2841 928 2578 
Q 928 2378 1081 2264 
Q 1234 2150 1697 2047 
L 1894 2003 
Q 2506 1872 2764 1633 
Q 3022 1394 3022 966 
Q 3022 478 2636 193 
Q 2250 -91 1575 -91 
Q 1294 -91 989 -36 
Q 684 19 347 128 
L 347 722 
Q 666 556 975 473 
Q 1284 391 1588 391 
Q 1994 391 2212 530 
Q 2431 669 2431 922 
Q 2431 1156 2273 1281 
Q 2116 1406 1581 1522 
L 1381 1569 
Q 847 1681 609 1914 
Q 372 2147 372 2553 
Q 372 3047 722 3315 
Q 1072 3584 1716 3584 
Q 2034 3584 2315 3537 
Q 2597 3491 2834 3397 
z
" transform="scale(0.015625)"/>
       <path id="DejaVuSans-63" d="M 3122 3366 
L 3122 2828 
Q 2878 2963 2633 3030 
Q 2388 3097 2138 3097 
Q 1578 3097 1268 2742 
Q 959 2388 959 1747 
Q 959 1106 1268 751 
Q 1578 397 2138 397 
Q 2388 397 2633 464 
Q 2878 531 3122 666 
L 3122 134 
Q 2881 22 2623 -34 
Q 2366 -91 2075 -91 
Q 1284 -91 818 406 
Q 353 903 353 1747 
Q 353 2603 823 3093 
Q 1294 3584 2113 3584 
Q 2378 3584 2631 3529 
Q 2884 3475 3122 3366 
z
" transform="scale(0.015625)"/>
       <path id="DejaVuSans-6f" d="M 1959 3097 
Q 1497 3097 1228 2736 
Q 959 2375 959 1747 
Q 959 1119 1226 758 
Q 1494 397 1959 397 
Q 2419 397 2687 759 
Q 2956 1122 2956 1747 
Q 2956 2369 2687 2733 
Q 2419 3097 1959 3097 
z
M 1959 3584 
Q 2709 3584 3137 3096 
Q 3566 2609 3566 1747 
Q 3566 888 3137 398 
Q 2709 -91 1959 -91 
Q 1206 -91 779 398 
Q 353 888 353 1747 
Q 353 2609 779 3096 
Q 1206 3584 1959 3584 
z
" transform="scale(0.015625)"/>
       <path id="DejaVuSans-6e" d="M 3513 2113 
L 3513 0 
L 2938 0 
L 2938 2094 
Q 2938 2591 2744 2837 
Q 2550 3084 2163 3084 
Q 1697 3084 1428 2787 
Q 1159 2491 1159 1978 
L 1159 0 
L 581 0 
L 581 3500 
L 1159 3500 
L 1159 2956 
Q 1366 3272 1645 3428 
Q 1925 3584 2291 3584 
Q 2894 3584 3203 3211 
Q 3513 2838 3513 2113 
z
" transform="scale(0.015625)"/>
       <path id="DejaVuSans-64" d="M 2906 2969 
L 2906 4863 
L 3481 4863 
L 3481 0 
L 2906 0 
L 2906 525 
Q 2725 213 2448 61 
Q 2172 -91 1784 -91 
Q 1150 -91 751 415 
Q 353 922 353 1747 
Q 353 2572 751 3078 
Q 1150 3584 1784 3584 
Q 2172 3584 2448 3432 
Q 2725 3281 2906 2969 
z
M 947 1747 
Q 947 1113 1208 752 
Q 1469 391 1925 391 
Q 2381 391 2643 752 
Q 2906 1113 2906 1747 
Q 2906 2381 2643 2742 
Q 2381 3103 1925 3103 
Q 1469 3103 1208 2742 
Q 947 2381 947 1747 
z
" transform="scale(0.015625)"/>
       <path id="DejaVuSans-29" d="M 513 4856 
L 1013 4856 
Q 1481 4119 1714 3412 
Q 1947 2706 1947 2009 
Q 1947 1309 1714 600 
Q 1481 -109 1013 -844 
L 513 -844 
Q 928 -128 1133 580 
Q 1338 1288 1338 2009 
Q 1338 2731 1133 3434 
Q 928 4138 513 4856 
z
" transform="scale(0.015625)"/>
      </defs>
      <use xlink:href="#DejaVuSans-54"/>
      <use xlink:href="#DejaVuSans-69" transform="translate(57.958984 0)"/>
      <use xlink:href="#DejaVuSans-6d" transform="translate(85.742188 0)"/>
      <use xlink:href="#DejaVuSans-65" transform="translate(183.154297 0)"/>
      <use xlink:href="#DejaVuSans-20" transform="translate(244.677734 0)"/>
      <use xlink:href="#DejaVuSans-28" transform="translate(276.464844 0)"/>
      <use xlink:href="#DejaVuSans-73" transform="translate(315.478516 0)"/>
      <use xlink:href="#DejaVuSans-65" transform="translate(367.578125 0)"/>
      <use xlink:href="#DejaVuSans-63" transform="translate(429.101562 0)"/>
      <use xlink:href="#DejaVuSans-6f" transform="translate(484.082031 0)"/>
      <use xlink:href="#DejaVuSans-6e" transform="translate(545.263672 0)"/>
      <use xlink:href="#DejaVuSans-64" transform="translate(608.642578 0)"/>
      <use xlink:href="#DejaVuSans-73" transform="translate(672.119141 0)"/>
      <use xlink:href="#DejaVuSans-29" transform="translate(724.21875 0)"/>
     </g>
    </g>
   </g>
   <g id="matplotlib.axis_2">
    <g id="ytick_1">
     <g id="line2d_15">
      <path d="M 54 249.181925 
L 388.8 249.181925 
" clip-path="url(#p261c689969)" style="fill: none; stroke: #b0b0b0; stroke-width: 0.8; stroke-linecap: square"/>
     </g>
     <g id="line2d_16">
      <defs>
       <path id="mef177ae199" d="M 0 0 
L -3.5 0 
" style="stroke: #000000; stroke-width: 0.8"/>
      </defs>
      <g>
       <use xlink:href="#mef177ae199" x="54" y="249.181925" style="stroke: #000000; stroke-width: 0.8"/>
      </g>
     </g>
     <g id="text_9">
      <!-- −50 -->
      <g transform="translate(25.895312 252.981144) scale(0.1 -0.1)">
       <defs>
        <path id="DejaVuSans-2212" d="M 678 2272 
L 4684 2272 
L 4684 1741 
L 678 1741 
L 678 2272 
z
" transform="scale(0.015625)"/>
       </defs>
       <use xlink:href="#DejaVuSans-2212"/>
       <use xlink:href="#DejaVuSans-35" transform="translate(83.789062 0)"/>
       <use xlink:href="#DejaVuSans-30" transform="translate(147.412109 0)"/>
      </g>
     </g>
    </g>
    <g id="ytick_2">
     <g id="line2d_17">
      <path d="M 54 223.450899 
L 388.8 223.450899 
" clip-path="url(#p261c689969)" style="fill: none; stroke: #b0b0b0; stroke-width: 0.8; stroke-linecap: square"/>
     </g>
     <g id="line2d_18">
      <g>
       <use xlink:href="#mef177ae199" x="54" y="223.450899" style="stroke: #000000; stroke-width: 0.8"/>
      </g>
     </g>
     <g id="text_10">
      <!-- 0 -->
      <g transform="translate(40.6375 227.250118) scale(0.1 -0.1)">
       <use xlink:href="#DejaVuSans-30"/>
      </g>
     </g>
    </g>
    <g id="ytick_3">
     <g id="line2d_19">
      <path d="M 54 197.719873 
L 388.8 197.719873 
" clip-path="url(#p261c689969)" style="fill: none; stroke: #b0b0b0; stroke-width: 0.8; stroke-linecap: square"/>
     </g>
     <g id="line2d_20">
      <g>
       <use xlink:href="#mef177ae199" x="54" y="197.719873" style="stroke: #000000; stroke-width: 0.8"/>
      </g>
     </g>
     <g id="text_11">
      <!-- 50 -->
      <g transform="translate(34.275 201.519092) scale(0.1 -0.1)">
       <use xlink:href="#DejaVuSans-35"/>
       <use xlink:href="#DejaVuSans-30" transform="translate(63.623047 0)"/>
      </g>
     </g>
    </g>
    <g id="ytick_4">
     <g id="line2d_21">
      <path d="M 54 171.988847 
L 388.8 171.988847 
" clip-path="url(#p261c689969)" style="fill: none; stroke: #b0b0b0; stroke-width: 0.8; stroke-linecap: square"/>
     </g>
     <g id="line2d_22">
      <g>
       <use xlink:href="#mef177ae199" x="54" y="171.988847" style="stroke: #000000; stroke-width: 0.8"/>
      </g>
     </g>
     <g id="text_12">
      <!-- 100 -->
      <g transform="translate(27.9125 175.788066) scale(0.1 -0.1)">
       <use xlink:href="#DejaVuSans-31"/>
       <use xlink:href="#DejaVuSans-30" transform="translate(63.623047 0)"/>
       <use xlink:href="#DejaVuSans-30" transform="translate(127.246094 0)"/>
      </g>
     </g>
    </g>
    <g id="ytick_5">
     <g id="line2d_23">
      <path d="M 54 146.257821 
L 388.8 146.257821 
" clip-path="url(#p261c689969)" style="fill: none; stroke: #b0b0b0; stroke-width: 0.8; stroke-linecap: square"/>
     </g>
     <g id="line2d_24">
      <g>
       <use xlink:href="#mef177ae199" x="54" y="146.257821" style="stroke: #000000; stroke-width: 0.8"/>
      </g>
     </g>
     <g id="text_13">
      <!-- 150 -->
      <g transform="translate(27.9125 150.05704) scale(0.1 -0.1)">
       <use xlink:href="#DejaVuSans-31"/>
       <use xlink:href="#DejaVuSans-35" transform="translate(63.623047 0)"/>
       <use xlink:href="#DejaVuSans-30" transform="translate(127.246094 0)"/>
      </g>
     </g>
    </g>
    <g id="ytick_6">
     <g id="line2d_25">
      <path d="M 54 120.526795 
L 388.8 120.526795 
" clip-path="url(#p261c689969)" style="fill: none; stroke: #b0b0b0; stroke-width: 0.8; stroke-linecap: square"/>
     </g>
     <g id="line2d_26">
      <g>
       <use xlink:href="#mef177ae199" x="54" y="120.526795" style="stroke: #000000; stroke-width: 0.8"/>
      </g>
     </g>
     <g id="text_14">
      <!-- 200 -->
      <g transform="translate(27.9125 124.326014) scale(0.1 -0.1)">
       <use xlink:href="#DejaVuSans-32"/>
       <use xlink:href="#DejaVuSans-30" transform="translate(63.623047 0)"/>
       <use xlink:href="#DejaVuSans-30" transform="translate(127.246094 0)"/>
      </g>
     </g>
    </g>
    <g id="ytick_7">
     <g id="line2d_27">
      <path d="M 54 94.795769 
L 388.8 94.795769 
" clip-path="url(#p261c689969)" style="fill: none; stroke: #b0b0b0; stroke-width: 0.8; stroke-linecap: square"/>
     </g>
     <g id="line2d_28">
      <g>
       <use xlink:href="#mef177ae199" x="54" y="94.795769" style="stroke: #000000; stroke-width: 0.8"/>
      </g>
     </g>
     <g id="text_15">
      <!-- 250 -->
      <g transform="translate(27.9125 98.594988) scale(0.1 -0.1)">
       <use xlink:href="#DejaVuSans-32"/>
       <use xlink:href="#DejaVuSans-35" transform="translate(63.623047 0)"/>
       <use xlink:href="#DejaVuSans-30" transform="translate(127.246094 0)"/>
      </g>
     </g>
    </g>
    <g id="ytick_8">
     <g id="line2d_29">
      <path d="M 54 69.064743 
L 388.8 69.064743 
" clip-path="url(#p261c689969)" style="fill: none; stroke: #b0b0b0; stroke-width: 0.8; stroke-linecap: square"/>
     </g>
     <g id="line2d_30">
      <g>
       <use xlink:href="#mef177ae199" x="54" y="69.064743" style="stroke: #000000; stroke-width: 0.8"/>
      </g>
     </g>
     <g id="text_16">
      <!-- 300 -->
      <g transform="translate(27.9125 72.863962) scale(0.1 -0.1)">
       <use xlink:href="#DejaVuSans-33"/>
       <use xlink:href="#DejaVuSans-30" transform="translate(63.623047 0)"/>
       <use xlink:href="#DejaVuSans-30" transform="translate(127.246094 0)"/>
      </g>
     </g>
    </g>
    <g id="ytick_9">
     <g id="line2d_31">
      <path d="M 54 43.333717 
L 388.8 43.333717 
" clip-path="url(#p261c689969)" style="fill: none; stroke: #b0b0b0; stroke-width: 0.8; stroke-linecap: square"/>
     </g>
     <g id="line2d_32">
      <g>
       <use xlink:href="#mef177ae199" x="54" y="43.333717" style="stroke: #000000; stroke-width: 0.8"/>
      </g>
     </g>
     <g id="text_17">
      <!-- 350 -->
      <g transform="translate(27.9125 47.132936) scale(0.1 -0.1)">
       <use xlink:href="#DejaVuSans-33"/>
       <use xlink:href="#DejaVuSans-35" transform="translate(63.623047 0)"/>
       <use xlink:href="#DejaVuSans-30" transform="translate(127.246094 0)"/>
      </g>
     </g>
    </g>
    <g id="text_18">
     <!-- Angle (degrees) -->
     <g transform="translate(19.815625 185.285313) rotate(-90) scale(0.1 -0.1)">
      <defs>
       <path id="DejaVuSans-41" d="M 2188 4044 
L 1331 1722 
L 3047 1722 
L 2188 4044 
z
M 1831 4666 
L 2547 4666 
L 4325 0 
L 3669 0 
L 3244 1197 
L 1141 1197 
L 716 0 
L 50 0 
L 1831 4666 
z
" transform="scale(0.015625)"/>
       <path id="DejaVuSans-67" d="M 2906 1791 
Q 2906 2416 2648 2759 
Q 2391 3103 1925 3103 
Q 1463 3103 1205 2759 
Q 947 2416 947 1791 
Q 947 1169 1205 825 
Q 1463 481 1925 481 
Q 2391 481 2648 825 
Q 2906 1169 2906 1791 
z
M 3481 434 
Q 3481 -459 3084 -895 
Q 2688 -1331 1869 -1331 
Q 1566 -1331 1297 -1286 
Q 1028 -1241 775 -1147 
L 775 -588 
Q 1028 -725 1275 -790 
Q 1522 -856 1778 -856 
Q 2344 -856 2625 -561 
Q 2906 -266 2906 331 
L 2906 616 
Q 2728 306 2450 153 
Q 2172 0 1784 0 
Q 1141 0 747 490 
Q 353 981 353 1791 
Q 353 2603 747 3093 
Q 1141 3584 1784 3584 
Q 2172 3584 2450 3431 
Q 2728 3278 2906 2969 
L 2906 3500 
L 3481 3500 
L 3481 434 
z
" transform="scale(0.015625)"/>
       <path id="DejaVuSans-6c" d="M 603 4863 
L 1178 4863 
L 1178 0 
L 603 0 
L 603 4863 
z
" transform="scale(0.015625)"/>
       <path id="DejaVuSans-72" d="M 2631 2963 
Q 2534 3019 2420 3045 
Q 2306 3072 2169 3072 
Q 1681 3072 1420 2755 
Q 1159 2438 1159 1844 
L 1159 0 
L 581 0 
L 581 3500 
L 1159 3500 
L 1159 2956 
Q 1341 3275 1631 3429 
Q 1922 3584 2338 3584 
Q 2397 3584 2469 3576 
Q 2541 3569 2628 3553 
L 2631 2963 
z
" transform="scale(0.015625)"/>
      </defs>
      <use xlink:href="#DejaVuSans-41"/>
      <use xlink:href="#DejaVuSans-6e" transform="translate(68.408203 0)"/>
      <use xlink:href="#DejaVuSans-67" transform="translate(131.787109 0)"/>
      <use xlink:href="#DejaVuSans-6c" transform="translate(195.263672 0)"/>
      <use xlink:href="#DejaVuSans-65" transform="translate(223.046875 0)"/>
      <use xlink:href="#DejaVuSans-20" transform="translate(284.570312 0)"/>
      <use xlink:href="#DejaVuSans-28" transform="translate(316.357422 0)"/>
      <use xlink:href="#DejaVuSans-64" transform="translate(355.371094 0)"/>
      <use xlink:href="#DejaVuSans-65" transform="translate(418.847656 0)"/>
      <use xlink:href="#DejaVuSans-67" transform="translate(480.371094 0)"/>
      <use xlink:href="#DejaVuSans-72" transform="translate(543.847656 0)"/>
      <use xlink:href="#DejaVuSans-65" transform="translate(582.710938 0)"/>
      <use xlink:href="#DejaVuSans-65" transform="translate(644.234375 0)"/>
      <use xlink:href="#DejaVuSans-73" transform="translate(705.757812 0)"/>
      <use xlink:href="#DejaVuSans-29" transform="translate(757.857422 0)"/>
     </g>
    </g>
   </g>
   <g id="line2d_33">
    <path d="M 69.218182 224.931655 
L 70.005669 224.802599 
L 72.466565 224.713983 
L 74.139974 224.663036 
L 79.061766 224.860559 
L 84.771046 224.728913 
L 88.068646 224.458981 
L 89.692838 224.275866 
L 96.28804 223.633656 
L 106.082406 223.541958 
L 107.755816 223.360478 
L 109.380007 223.136666 
L 111.053416 223.005177 
L 111.840903 222.875585 
L 114.301799 222.925421 
L 120.897001 223.673781 
L 124.145384 224.12886 
L 125.818793 224.085916 
L 129.067176 223.67615 
L 131.528072 223.228802 
L 132.364777 223.184386 
L 134.825673 222.75036 
L 136.449865 222.534896 
L 138.910761 222.484522 
L 141.371657 222.651651 
L 143.832553 223.093046 
L 147.966859 223.228017 
L 152.051946 222.917946 
L 153.676138 222.740395 
L 156.137034 222.556649 
L 158.59793 222.60132 
L 163.519722 223.04974 
L 169.278219 223.135558 
L 175.824203 223.405369 
L 185.667788 222.939487 
L 190.58958 223.310912 
L 193.050476 223.497236 
L 194.723886 223.589907 
L 196.348077 223.729883 
L 198.808973 223.684206 
L 203.730766 223.168965 
L 208.652558 223.263596 
L 221.793743 223.915832 
L 228.339727 224.006832 
L 237.346607 224.455446 
L 240.644208 224.370661 
L 242.268399 224.281679 
L 245.566 224.189437 
L 247.190192 224.235561 
L 248.863601 224.324718 
L 252.111984 224.413213 
L 277.55765 224.596234 
L 280.018546 224.637794 
L 285.777043 224.413213 
L 288.23794 224.512163 
L 290.698836 224.600261 
L 293.159732 224.542795 
L 296.408115 224.637794 
L 310.386005 224.554358 
L 314.471093 224.243861 
L 316.095284 223.922398 
L 317.768693 223.689163 
L 322.690486 222.590498 
L 324.314677 222.549077 
L 326.775573 222.889086 
L 327.612278 223.078935 
L 328.399765 223.450899 
L 329.236469 223.635592 
L 331.746584 224.870489 
L 332.53407 225.999112 
L 333.321557 226.080128 
L 334.158262 225.919153 
L 334.945749 225.628583 
L 336.619158 225.458808 
L 340.704246 224.96713 
L 341.590168 224.84421 
L 343.21436 224.274985 
L 344.051064 224.099052 
L 345.675256 224.201321 
L 348.923639 224.883759 
L 350.54783 225.046108 
L 351.384535 225.116148 
L 353.845431 224.860559 
L 355.51884 224.588218 
L 356.306327 224.409839 
L 357.143032 224.367438 
L 358.767223 224.008786 
L 362.852311 223.884266 
L 367.774103 224.381546 
L 371.859191 224.231985 
L 373.581818 224.180645 
L 373.581818 224.180645 
" clip-path="url(#p261c689969)" style="fill: none; stroke: #1f77b4; stroke-width: 1.5; stroke-linecap: square"/>
   </g>
   <g id="line2d_34">
    <path d="M 69.218182 245.023591 
L 70.005669 245.133664 
L 75.764166 245.035501 
L 81.522663 244.718171 
L 84.771046 244.827874 
L 87.231942 244.887539 
L 105.294919 244.858754 
L 115.975209 244.238472 
L 118.436105 244.292685 
L 120.060296 244.447067 
L 126.60628 244.750488 
L 137.286569 244.223076 
L 139.747466 244.327523 
L 144.669258 244.548427 
L 150.427755 244.444935 
L 157.810443 244.53473 
L 169.278219 244.651338 
L 173.363307 244.807611 
L 179.958509 244.909134 
L 184.043596 245.059139 
L 187.341197 245.164587 
L 193.887181 245.06492 
L 199.645678 245.167518 
L 202.106574 245.218979 
L 204.56747 245.269333 
L 215.198542 245.166867 
L 217.659438 245.114435 
L 232.424815 245.000447 
L 236.55912 244.841536 
L 239.856721 244.944336 
L 271.011666 244.942611 
L 273.472563 244.891217 
L 311.173492 244.992193 
L 317.768693 245.475618 
L 319.392885 245.578911 
L 321.017076 245.623942 
L 322.690486 245.514602 
L 327.612278 245.113826 
L 330.122392 244.902734 
L 331.746584 244.872154 
L 334.945749 244.40566 
L 340.704246 244.918351 
L 341.590168 245.079931 
L 344.051064 246.13831 
L 344.838551 246.24 
L 345.675256 246.187302 
L 347.299447 245.814358 
L 348.923639 245.490591 
L 349.711125 245.277501 
L 350.54783 245.223453 
L 351.384535 245.012614 
L 353.845431 244.769499 
L 357.143032 244.894575 
L 363.689016 245.728847 
L 367.774103 245.87292 
L 370.234999 245.824579 
L 373.581818 245.775876 
L 373.581818 245.775876 
" clip-path="url(#p261c689969)" style="fill: none; stroke: #ff7f0e; stroke-width: 1.5; stroke-linecap: square"/>
   </g>
   <g id="line2d_35">
    <path d="M 69.218182 223.450899 
L 71.679078 222.912692 
L 72.466565 222.500996 
L 73.303269 222.418922 
L 74.139974 222.058687 
L 74.927461 221.580596 
L 75.764166 221.377684 
L 77.388357 220.305179 
L 78.225062 220.051063 
L 79.849253 218.908246 
L 80.685958 218.599473 
L 81.522663 217.930467 
L 82.310149 217.158536 
L 83.146854 216.863594 
L 84.771046 215.402451 
L 85.60775 215.056571 
L 86.444455 214.370803 
L 87.231942 214.027932 
L 88.905351 212.776847 
L 89.692838 212.485481 
L 91.366247 211.165686 
L 92.153734 210.874346 
L 93.827143 209.606103 
L 94.61463 209.314782 
L 96.28804 208.201409 
L 97.075526 207.892637 
L 98.748936 206.640795 
L 99.536422 206.280347 
L 101.160614 204.873409 
L 101.997319 204.564637 
L 103.670728 203.106239 
L 104.458215 202.746432 
L 106.082406 201.494802 
L 106.919111 201.254847 
L 108.59252 200.481798 
L 110.216712 200.067758 
L 111.053416 199.739918 
L 112.677608 198.446415 
L 113.514313 198.086181 
L 115.138504 196.441266 
L 115.975209 196.013469 
L 117.5994 194.492395 
L 118.436105 194.115947 
L 120.060296 192.525346 
L 120.897001 192.131563 
L 122.521193 190.536069 
L 123.357897 190.140653 
L 124.145384 189.437632 
L 124.982089 188.869972 
L 125.818793 188.681233 
L 127.442985 187.82445 
L 128.27969 187.652652 
L 129.903881 186.691401 
L 130.740586 186.467646 
L 131.528072 186.070355 
L 133.201482 185.378942 
L 133.988969 184.978137 
L 134.825673 184.804451 
L 136.449865 184.007813 
L 137.286569 183.768647 
L 138.123274 183.218603 
L 138.910761 182.535767 
L 139.747466 182.212969 
L 140.58417 181.461917 
L 141.371657 181.138616 
L 142.208362 180.250738 
L 143.832553 178.762468 
L 144.669258 178.385517 
L 146.293449 177.167933 
L 147.130154 176.859161 
L 148.754346 175.640074 
L 149.59105 175.331301 
L 151.215242 174.436065 
L 152.051946 174.195254 
L 154.512843 172.957995 
L 155.349547 172.408482 
L 156.137034 172.169796 
L 157.810443 171.140555 
L 158.59793 170.815116 
L 160.27134 169.357373 
L 161.058826 168.912492 
L 162.732236 167.164439 
L 163.519722 166.684672 
L 165.193132 165.037886 
L 165.980619 164.62619 
L 167.654028 163.135652 
L 168.441515 162.655675 
L 170.114924 161.027962 
L 170.902411 160.599232 
L 171.739116 159.639159 
L 172.57582 159.158858 
L 174.200012 157.374861 
L 174.987499 156.963164 
L 176.660908 155.608188 
L 177.497613 155.316664 
L 178.285099 154.716793 
L 179.121804 154.220059 
L 179.958509 154.031669 
L 184.880301 151.671378 
L 186.504493 150.144324 
L 187.341197 149.714638 
L 188.965389 148.098789 
L 189.802093 147.720552 
L 191.426285 146.174029 
L 192.26299 145.865257 
L 193.050476 145.057643 
L 193.887181 144.748871 
L 195.511372 143.133869 
L 196.348077 142.703736 
L 197.972269 141.262141 
L 198.808973 140.971369 
L 202.894061 138.47649 
L 203.730766 138.237401 
L 205.354957 137.053774 
L 206.191662 136.674764 
L 207.815853 135.575949 
L 208.652558 135.318638 
L 210.325967 134.04732 
L 211.113454 133.720433 
L 212.786863 132.328072 
L 213.57435 132.01952 
L 214.411055 131.263043 
L 215.198542 130.884806 
L 216.871951 129.4601 
L 217.659438 129.151327 
L 218.496143 128.36151 
L 219.332847 127.743966 
L 220.120334 127.383731 
L 221.793743 125.855568 
L 222.58123 125.495333 
L 224.25464 123.986256 
L 225.042126 123.626022 
L 229.176432 120.194002 
L 229.963919 119.816012 
L 230.997495 119.180716 
L 231.637328 118.426604 
L 232.424815 117.997281 
L 234.098224 116.679796 
L 234.885711 116.302169 
L 235.722416 115.738327 
L 236.55912 115.429555 
L 237.346607 114.846193 
L 238.183312 114.398073 
L 239.020016 114.140763 
L 240.644208 113.023846 
L 241.480913 112.663611 
L 243.105104 111.324841 
L 243.941809 110.982239 
L 245.566 109.438377 
L 246.402705 109.026681 
L 248.026896 107.17263 
L 248.863601 106.762982 
L 250.487793 105.083442 
L 251.324497 104.671745 
L 252.948689 103.33148 
L 253.785393 103.022708 
L 254.57288 102.336208 
L 255.409585 102.027436 
L 257.033776 101.015688 
L 257.870481 100.758377 
L 261.168082 99.283478 
L 261.955569 98.697632 
L 262.792273 98.491784 
L 264.416465 97.464806 
L 265.253169 97.207496 
L 266.089874 96.710375 
L 266.877361 96.075331 
L 267.763284 95.766558 
L 269.338257 94.565438 
L 270.174962 94.205204 
L 271.011666 93.536197 
L 271.848371 93.178322 
L 274.260049 91.274226 
L 275.096754 91.016916 
L 275.933459 90.484916 
L 276.720946 90.158773 
L 278.394355 89.094814 
L 279.23106 88.888966 
L 280.855251 88.034131 
L 282.479443 87.536767 
L 283.316147 87.227995 
L 284.103634 87.193798 
L 284.940339 86.951413 
L 285.777043 86.865875 
L 291.486322 84.603431 
L 293.159732 83.473812 
L 293.947219 83.147888 
L 294.783923 82.530343 
L 295.620628 82.218919 
L 297.244819 80.915119 
L 298.081524 80.552113 
L 299.705716 79.2141 
L 300.54242 78.925348 
L 302.166612 77.589986 
L 302.954099 77.281214 
L 304.627508 76.028981 
L 305.414995 75.720209 
L 307.088404 74.585287 
L 307.925109 74.345225 
L 309.5493 73.227758 
L 310.386005 72.967875 
L 312.010196 71.968844 
L 312.846901 71.780703 
L 313.634388 71.350913 
L 314.471093 71.127421 
L 315.307797 70.58031 
L 316.095284 69.860437 
L 316.981207 69.535955 
L 318.55618 68.069297 
L 319.392885 67.494803 
L 320.180372 67.243527 
L 321.017076 66.791438 
L 321.853781 66.572091 
L 325.151382 64.488539 
L 325.938869 63.866014 
L 326.775573 63.570982 
L 327.612278 63.033672 
L 328.399765 62.32445 
L 329.236469 62.047892 
L 330.122392 61.30819 
L 330.860661 60.516631 
L 331.746584 60.03504 
L 332.53407 58.840482 
L 334.158262 58.262708 
L 334.945749 57.862209 
L 335.782453 57.237321 
L 336.619158 56.944952 
L 337.455863 56.355831 
L 338.292567 56.127381 
L 339.916759 55.334328 
L 340.704246 55.210955 
L 341.590168 54.841741 
L 342.377655 54.6421 
L 343.21436 54.638446 
L 344.051064 54.394161 
L 344.838551 53.958894 
L 345.675256 53.785939 
L 347.299447 52.768336 
L 348.086934 52.478111 
L 349.711125 51.171707 
L 350.54783 50.848562 
L 351.384535 50.159272 
L 352.270457 49.6183 
L 353.008726 49.33415 
L 353.845431 48.822897 
L 354.682136 48.54833 
L 356.306327 47.60257 
L 358.767223 46.825567 
L 360.391415 46.464527 
L 361.228119 46.204196 
L 362.852311 45.942786 
L 363.689016 45.696394 
L 364.52572 45.62431 
L 366.149912 45.040994 
L 371.859191 44.670269 
L 373.581818 44.64 
L 373.581818 44.64 
" clip-path="url(#p261c689969)" style="fill: none; stroke: #2ca02c; stroke-width: 1.5; stroke-linecap: square"/>
   </g>
   <g id="patch_3">
    <path d="M 54 256.32 
L 54 34.56 
" style="fill: none; stroke: #000000; stroke-width: 0.8; stroke-linejoin: miter; stroke-linecap: square"/>
   </g>
   <g id="patch_4">
    <path d="M 388.8 256.32 
L 388.8 34.56 
" style="fill: none; stroke: #000000; stroke-width: 0.8; stroke-linejoin: miter; stroke-linecap: square"/>
   </g>
   <g id="patch_5">
    <path d="M 54 256.32 
L 388.8 256.32 
" style="fill: none; stroke: #000000; stroke-width: 0.8; stroke-linejoin: miter; stroke-linecap: square"/>
   </g>
   <g id="patch_6">
    <path d="M 54 34.56 
L 388.8 34.56 
" style="fill: none; stroke: #000000; stroke-width: 0.8; stroke-linejoin: miter; stroke-linecap: square"/>
   </g>
   <g id="text_19">
    <!-- Device Orientation (Corrected) — 45 degrees tilt -->
    <g transform="translate(75.660938 28.56) scale(0.12 -0.12)">
     <defs>
      <path id="DejaVuSans-44" d="M 1259 4147 
L 1259 519 
L 2022 519 
Q 2988 519 3436 956 
Q 3884 1394 3884 2338 
Q 3884 3275 3436 3711 
Q 2988 4147 2022 4147 
L 1259 4147 
z
M 628 4666 
L 1925 4666 
Q 3281 4666 3915 4102 
Q 4550 3538 4550 2338 
Q 4550 1131 3912 565 
Q 3275 0 1925 0 
L 628 0 
L 628 4666 
z
" transform="scale(0.015625)"/>
      <path id="DejaVuSans-76" d="M 191 3500 
L 800 3500 
L 1894 563 
L 2988 3500 
L 3597 3500 
L 2284 0 
L 1503 0 
L 191 3500 
z
" transform="scale(0.015625)"/>
      <path id="DejaVuSans-4f" d="M 2522 4238 
Q 1834 4238 1429 3725 
Q 1025 3213 1025 2328 
Q 1025 1447 1429 934 
Q 1834 422 2522 422 
Q 3209 422 3611 934 
Q 4013 1447 4013 2328 
Q 4013 3213 3611 3725 
Q 3209 4238 2522 4238 
z
M 2522 4750 
Q 3503 4750 4090 4092 
Q 4678 3434 4678 2328 
Q 4678 1225 4090 567 
Q 3503 -91 2522 -91 
Q 1538 -91 948 565 
Q 359 1222 359 2328 
Q 359 3434 948 4092 
Q 1538 4750 2522 4750 
z
" transform="scale(0.015625)"/>
      <path id="DejaVuSans-74" d="M 1172 4494 
L 1172 3500 
L 2356 3500 
L 2356 3053 
L 1172 3053 
L 1172 1153 
Q 1172 725 1289 603 
Q 1406 481 1766 481 
L 2356 481 
L 2356 0 
L 1766 0 
Q 1100 0 847 248 
Q 594 497 594 1153 
L 594 3053 
L 172 3053 
L 172 3500 
L 594 3500 
L 594 4494 
L 1172 4494 
z
" transform="scale(0.015625)"/>
      <path id="DejaVuSans-61" d="M 2194 1759 
Q 1497 1759 1228 1600 
Q 959 1441 959 1056 
Q 959 750 1161 570 
Q 1363 391 1709 391 
Q 2188 391 2477 730 
Q 2766 1069 2766 1631 
L 2766 1759 
L 2194 1759 
z
M 3341 1997 
L 3341 0 
L 2766 0 
L 2766 531 
Q 2569 213 2275 61 
Q 1981 -91 1556 -91 
Q 1019 -91 701 211 
Q 384 513 384 1019 
Q 384 1609 779 1909 
Q 1175 2209 1959 2209 
L 2766 2209 
L 2766 2266 
Q 2766 2663 2505 2880 
Q 2244 3097 1772 3097 
Q 1472 3097 1187 3025 
Q 903 2953 641 2809 
L 641 3341 
Q 956 3463 1253 3523 
Q 1550 3584 1831 3584 
Q 2591 3584 2966 3190 
Q 3341 2797 3341 1997 
z
" transform="scale(0.015625)"/>
      <path id="DejaVuSans-43" d="M 4122 4306 
L 4122 3641 
Q 3803 3938 3442 4084 
Q 3081 4231 2675 4231 
Q 1875 4231 1450 3742 
Q 1025 3253 1025 2328 
Q 1025 1406 1450 917 
Q 1875 428 2675 428 
Q 3081 428 3442 575 
Q 3803 722 4122 1019 
L 4122 359 
Q 3791 134 3420 21 
Q 3050 -91 2638 -91 
Q 1578 -91 968 557 
Q 359 1206 359 2328 
Q 359 3453 968 4101 
Q 1578 4750 2638 4750 
Q 3056 4750 3426 4639 
Q 3797 4528 4122 4306 
z
" transform="scale(0.015625)"/>
      <path id="DejaVuSans-2014" d="M 313 1978 
L 6088 1978 
L 6088 1528 
L 313 1528 
L 313 1978 
z
" transform="scale(0.015625)"/>
     </defs>
     <use xlink:href="#DejaVuSans-44"/>
     <use xlink:href="#DejaVuSans-65" transform="translate(77.001953 0)"/>
     <use xlink:href="#DejaVuSans-76" transform="translate(138.525391 0)"/>
     <use xlink:href="#DejaVuSans-69" transform="translate(197.705078 0)"/>
     <use xlink:href="#DejaVuSans-63" transform="translate(225.488281 0)"/>
     <use xlink:href="#DejaVuSans-65" transform="translate(280.46875 0)"/>
     <use xlink:href="#DejaVuSans-20" transform="translate(341.992188 0)"/>
     <use xlink:href="#DejaVuSans-4f" transform="translate(373.779297 0)"/>
     <use xlink:href="#DejaVuSans-72" transform="translate(452.490234 0)"/>
     <use xlink:href="#DejaVuSans-69" transform="translate(493.603516 0)"/>
     <use xlink:href="#DejaVuSans-65" transform="translate(521.386719 0)"/>
     <use xlink:href="#DejaVuSans-6e" transform="translate(582.910156 0)"/>
     <use xlink:href="#DejaVuSans-74" transform="translate(646.289062 0)"/>
     <use xlink:href="#DejaVuSans-61" transform="translate(685.498047 0)"/>
     <use xlink:href="#DejaVuSans-74" transform="translate(746.777344 0)"/>
     <use xlink:href="#DejaVuSans-69" transform="translate(785.986328 0)"/>
     <use xlink:href="#DejaVuSans-6f" transform="translate(813.769531 0)"/>
     <use xlink:href="#DejaVuSans-6e" transform="translate(874.951172 0)"/>
     <use xlink:href="#DejaVuSans-20" transform="translate(938.330078 0)"/>
     <use xlink:href="#DejaVuSans-28" transform="translate(970.117188 0)"/>
     <use xlink:href="#DejaVuSans-43" transform="translate(1009.130859 0)"/>
     <use xlink:href="#DejaVuSans-6f" transform="translate(1078.955078 0)"/>
     <use xlink:href="#DejaVuSans-72" transform="translate(1140.136719 0)"/>
     <use xlink:href="#DejaVuSans-72" transform="translate(1179.5 0)"/>
     <use xlink:href="#DejaVuSans-65" transform="translate(1218.363281 0)"/>
     <use xlink:href="#DejaVuSans-63" transform="translate(1279.886719 0)"/>
     <use xlink:href="#DejaVuSans-74" transform="translate(1334.867188 0)"/>
     <use xlink:href="#DejaVuSans-65" transform="translate(1374.076172 0)"/>
     <use xlink:href="#DejaVuSans-64" transform="translate(1435.599609 0)"/>
     <use xlink:href="#DejaVuSans-29" transform="translate(1499.076172 0)"/>
     <use xlink:href="#DejaVuSans-20" transform="translate(1538.089844 0)"/>
     <use xlink:href="#DejaVuSans-2014" transform="translate(1569.876953 0)"/>
     <use xlink:href="#DejaVuSans-20" transform="translate(1669.876953 0)"/>
     <use xlink:href="#DejaVuSans-34" transform="translate(1701.664062 0)"/>
     <use xlink:href="#DejaVuSans-35" transform="translate(1765.287109 0)"/>
     <use xlink:href="#DejaVuSans-20" transform="translate(1828.910156 0)"/>
     <use xlink:href="#DejaVuSans-64" transform="translate(1860.697266 0)"/>
     <use xlink:href="#DejaVuSans-65" transform="translate(1924.173828 0)"/>
     <use xlink:href="#DejaVuSans-67" transform="translate(1985.697266 0)"/>
     <use xlink:href="#DejaVuSans-72" transform="translate(2049.173828 0)"/>
     <use xlink:href="#DejaVuSans-65" transform="translate(2088.037109 0)"/>
     <use xlink:href="#DejaVuSans-65" transform="translate(2149.560547 0)"/>
     <use xlink:href="#DejaVuSans-73" transform="translate(2211.083984 0)"/>
     <use xlink:href="#DejaVuSans-20" transform="translate(2263.183594 0)"/>
     <use xlink:href="#DejaVuSans-74" transform="translate(2294.970703 0)"/>
     <use xlink:href="#DejaVuSans-69" transform="translate(2334.179688 0)"/>
     <use xlink:href="#DejaVuSans-6c" transform="translate(2361.962891 0)"/>
     <use xlink:href="#DejaVuSans-74" transform="translate(2389.746094 0)"/>
    </g>
   </g>
   <g id="legend_1">
    <g id="patch_7">
     <path d="M 61 86.594375 
L 133.209375 86.594375 
Q 135.209375 86.594375 135.209375 84.594375 
L 135.209375 41.56 
Q 135.209375 39.56 133.209375 39.56 
L 61 39.56 
Q 59 39.56 59 41.56 
L 59 84.594375 
Q 59 86.594375 61 86.594375 
z
" style="fill: #ffffff; opacity: 0.8; stroke: #cccccc; stroke-linejoin: miter"/>
    </g>
    <g id="line2d_36">
     <path d="M 63 47.658438 
L 73 47.658438 
L 83 47.658438 
" style="fill: none; stroke: #1f77b4; stroke-width: 1.5; stroke-linecap: square"/>
    </g>
    <g id="text_20">
     <!-- Forward -->
     <g transform="translate(91 51.158438) scale(0.1 -0.1)">
      <defs>
       <path id="DejaVuSans-46" d="M 628 4666 
L 3309 4666 
L 3309 4134 
L 1259 4134 
L 1259 2759 
L 3109 2759 
L 3109 2228 
L 1259 2228 
L 1259 0 
L 628 0 
L 628 4666 
z
" transform="scale(0.015625)"/>
       <path id="DejaVuSans-77" d="M 269 3500 
L 844 3500 
L 1563 769 
L 2278 3500 
L 2956 3500 
L 3675 769 
L 4391 3500 
L 4966 3500 
L 4050 0 
L 3372 0 
L 2619 2869 
L 1863 0 
L 1184 0 
L 269 3500 
z
" transform="scale(0.015625)"/>
      </defs>
      <use xlink:href="#DejaVuSans-46"/>
      <use xlink:href="#DejaVuSans-6f" transform="translate(53.894531 0)"/>
      <use xlink:href="#DejaVuSans-72" transform="translate(115.076172 0)"/>
      <use xlink:href="#DejaVuSans-77" transform="translate(156.189453 0)"/>
      <use xlink:href="#DejaVuSans-61" transform="translate(237.976562 0)"/>
      <use xlink:href="#DejaVuSans-72" transform="translate(299.255859 0)"/>
      <use xlink:href="#DejaVuSans-64" transform="translate(338.619141 0)"/>
     </g>
    </g>
    <g id="line2d_37">
     <path d="M 63 62.336563 
L 73 62.336563 
L 83 62.336563 
" style="fill: none; stroke: #ff7f0e; stroke-width: 1.5; stroke-linecap: square"/>
    </g>
    <g id="text_21">
     <!-- Right -->
     <g transform="translate(91 65.836563) scale(0.1 -0.1)">
      <defs>
       <path id="DejaVuSans-52" d="M 2841 2188 
Q 3044 2119 3236 1894 
Q 3428 1669 3622 1275 
L 4263 0 
L 3584 0 
L 2988 1197 
Q 2756 1666 2539 1819 
Q 2322 1972 1947 1972 
L 1259 1972 
L 1259 0 
L 628 0 
L 628 4666 
L 2053 4666 
Q 2853 4666 3247 4331 
Q 3641 3997 3641 3322 
Q 3641 2881 3436 2590 
Q 3231 2300 2841 2188 
z
M 1259 4147 
L 1259 2491 
L 2053 2491 
Q 2509 2491 2742 2702 
Q 2975 2913 2975 3322 
Q 2975 3731 2742 3939 
Q 2509 4147 2053 4147 
L 1259 4147 
z
" transform="scale(0.015625)"/>
       <path id="DejaVuSans-68" d="M 3513 2113 
L 3513 0 
L 2938 0 
L 2938 2094 
Q 2938 2591 2744 2837 
Q 2550 3084 2163 3084 
Q 1697 3084 1428 2787 
Q 1159 2491 1159 1978 
L 1159 0 
L 581 0 
L 581 4863 
L 1159 4863 
L 1159 2956 
Q 1366 3272 1645 3428 
Q 1925 3584 2291 3584 
Q 2894 3584 3203 3211 
Q 3513 2838 3513 2113 
z
" transform="scale(0.015625)"/>
      </defs>
      <use xlink:href="#DejaVuSans-52"/>
      <use xlink:href="#DejaVuSans-69" transform="translate(69.482422 0)"/>
      <use xlink:href="#DejaVuSans-67" transform="translate(97.265625 0)"/>
      <use xlink:href="#DejaVuSans-68" transform="translate(160.742188 0)"/>
      <use xlink:href="#DejaVuSans-74" transform="translate(224.121094 0)"/>
     </g>
    </g>
    <g id="line2d_38">
     <path d="M 63 77.014688 
L 73 77.014688 
L 83 77.014688 
" style="fill: none; stroke: #2ca02c; stroke-width: 1.5; stroke-linecap: square"/>
    </g>
    <g id="text_22">
     <!-- Up -->
     <g transform="translate(91 80.514688) scale(0.1 -0.1)">
      <defs>
       <path id="DejaVuSans-55" d="M 556 4666 
L 1191 4666 
L 1191 1831 
Q 1191 1081 1462 751 
Q 1734 422 2344 422 
Q 2950 422 3222 751 
Q 3494 1081 3494 1831 
L 3494 4666 
L 4128 4666 
L 4128 1753 
Q 4128 841 3676 375 
Q 3225 -91 2344 -91 
Q 1459 -91 1007 375 
Q 556 841 556 1753 
L 556 4666 
z
" transform="scale(0.015625)"/>
       <path id="DejaVuSans-70" d="M 1159 525 
L 1159 -1331 
L 581 -1331 
L 581 3500 
L 1159 3500 
L 1159 2969 
Q 1341 3281 1617 3432 
Q 1894 3584 2278 3584 
Q 2916 3584 3314 3078 
Q 3713 2572 3713 1747 
Q 3713 922 3314 415 
Q 2916 -91 2278 -91 
Q 1894 -91 1617 61 
Q 1341 213 1159 525 
z
M 3116 1747 
Q 3116 2381 2855 2742 
Q 2594 3103 2138 3103 
Q 1681 3103 1420 2742 
Q 1159 2381 1159 1747 
Q 1159 1113 1420 752 
Q 1681 391 2138 391 
Q 2594 391 2855 752 
Q 3116 1113 3116 1747 
z
" transform="scale(0.015625)"/>
      </defs>
      <use xlink:href="#DejaVuSans-55"/>
      <use xlink:href="#DejaVuSans-70" transform="translate(73.193359 0)"/>
     </g>
    </g>
   </g>
  </g>
 </g>
 <defs>
  <clipPath id="p261c689969">
   <rect x="54" y="34.56" width="334.8" height="221.76"/>
  </clipPath>
 </defs>
</svg>
